<?xml version="1.0" encoding="utf-8"?>
<!-- Generator: Adobe Illustrator 25.2.1, SVG Export Plug-In . SVG Version: 6.00 Build 0)  -->
<svg version="1.1" id="Layer_1" xmlns="http://www.w3.org/2000/svg" xmlns:xlink="http://www.w3.org/1999/xlink" x="0px" y="0px"
	 viewBox="0 0 512 512" style="enable-background:new 0 0 512 512;" xml:space="preserve">
<g transform="translate(0,0)">
	<path d="M352.75,39.47l-33.09,83.37l111.16,111.28l58.22-58.28L352.75,39.47z M192.41,44.69
		C94.16,111.66,25.54,205.93,22.94,333.59C85.19,213.78,185.39,108.5,278.16,63.84L192.41,44.69L192.41,44.69z M97.75,60.16
		L68.19,89.72c7.28,6.96,14.53,13.89,21.81,20.84c8.89-10.39,18.37-20.35,28.31-29.91C118.31,80.66,97.75,60.16,97.75,60.16z
		 M451.56,60.16L425.69,86l28.72,28.75c8.91-8.36,17.82-16.73,26.72-25.09L451.56,60.16z M187.62,149.91
		c-9.44,8.55-18.82,17.6-28.06,27.06c25.26,24.13,50.53,48.32,75.69,72.75l26.19-26.13L187.62,149.91L187.62,149.91z M340.94,170.63
		L68,443.15l29.31,29.22c83.48-96.13,175.76-186.5,269.81-275.53L340.94,170.63L340.94,170.63z M312.69,274.78
		c-8.69,8.42-17.35,16.85-25.97,25.31c55.9,55.38,111.17,112.35,165.16,172.44l29.44-29.37L312.69,274.78L312.69,274.78z"/>
</g>
</svg>
