<svg height='100px' width='100px'  fill="#000000" xmlns="http://www.w3.org/2000/svg" viewBox="0 0 24 24" x="0px" y="0px"><g data-name="26 Audio"><path d="M4,9v6a1,1,0,0,1-2,0V9A1,1,0,0,1,4,9ZM6,7A1,1,0,0,0,5,8v8a1,1,0,0,0,2,0V8A1,1,0,0,0,6,7ZM9,8A1,1,0,0,0,8,9v6a1,1,0,0,0,2,0V9A1,1,0,0,0,9,8Zm3-2a1,1,0,0,0-1,1V17a1,1,0,0,0,2,0V7A1,1,0,0,0,12,6Zm3-1a1,1,0,0,0-1,1V18a1,1,0,0,0,2,0V6A1,1,0,0,0,15,5Zm3,1a1,1,0,0,0-1,1V17a1,1,0,0,0,2,0V7A1,1,0,0,0,18,6Zm3,2a1,1,0,0,0-1,1v6a1,1,0,0,0,2,0V9A1,1,0,0,0,21,8Z"></path></g></svg>