<svg height='100px' width='100px'  fill="#000000" xmlns="http://www.w3.org/2000/svg" xmlns:xlink="http://www.w3.org/1999/xlink" version="1.1" x="0px" y="0px" viewBox="0 0 48 48" enable-background="new 0 0 48 48" xml:space="preserve"><g><g><g><path d="M13.2,18c0,0,2.4,3.9,2.7,5.5l1-1.4c0,0,0,0,0,0l0.5,1.7l0.3-0.3c1.4,2.3,3.7,3.8,6.2,3.8c2.5,0,4.8-1.5,6.2-3.9l0.3,0.4     l0.5-1.8l1,1.4c0.3-1.6,2.7-5.5,2.7-5.5l-0.1,2.7c2.2-2.3,1.3-5.4,0.3-7.5c-0.8-1.6-1.3-3.3-1.7-5c-0.5-2-1.3-3.9-1.3-3.9     C28.5-2.9,24,1.1,24,1.1s-4.5-4-7.9,3.3c0,0-0.9,1.9-1.3,3.9c-0.4,1.7-1,3.4-1.7,5c-1,2.1-1.8,5.1,0.3,7.5L13.2,18z M24,25.5     c-2.9,0-5.4-2.8-5.9-6.6c-0.1-0.6,0-1.3,0.3-1.9c0.6-1.2,1.4-3.2,1.7-5.6c0.1-0.6,0.4-1.2,0.9-1.6c0,0,2.4-2,4-1.8     c0.6,0.1,3.4,0.4,3.5,2.8l0.1,0.4c0.8,1.5,1.3,3.6,1.4,6.3C30,21.9,27.3,25.5,24,25.5z"></path></g></g><g><path d="M19.8,47.8c-5.5-0.6-10.6-2.5-14.9-5.3v-6.8c0-4.1,3.7-7.5,8.4-7.5h0.3C13.2,35.9,15.3,42.3,19.8,47.8z"></path><path d="M24,39.2c2.7,0,5.4-0.8,7.8-2.5c-1,4.2-3.1,8-6.2,11.2c-0.5,0-1,0-1.6,0c-0.5,0-1,0-1.6,0c-3.1-3.3-5.2-7-6.2-11.2    C18.6,38.4,21.3,39.2,24,39.2z"></path><path d="M32.3,33.9c-4.8,4.5-11.8,4.5-16.7,0c-0.3-1.9-0.3-4-0.2-6.1c0.8-0.4,1.5-0.9,1.9-1.7c1.7,1.9,4.1,3.1,6.6,3.1    c2.5,0,4.9-1.2,6.6-3.1c0.4,0.8,1.1,1.4,1.9,1.7C32.7,30,32.6,32,32.3,33.9z"></path><path d="M43.1,35.6v6.8c-4.3,2.8-9.4,4.7-14.9,5.3c4.5-5.4,6.6-11.9,6.2-19.6h0.3C39.3,28.2,43.1,31.5,43.1,35.6z"></path></g></g></svg>