<?xml version="1.0" encoding="utf-8"?>
<!-- Generator: Adobe Illustrator 25.2.1, SVG Export Plug-In . SVG Version: 6.00 Build 0)  -->
<svg version="1.1" xmlns="http://www.w3.org/2000/svg" xmlns:xlink="http://www.w3.org/1999/xlink" x="0px" y="0px"
	 viewBox="0 0 500 700" style="enable-background:new 0 0 500 700;" xml:space="preserve">
<style type="text/css">
	.st0{fill-rule:evenodd;clip-rule:evenodd;fill:#D0DDF1;}
	.st1{fill-rule:evenodd;clip-rule:evenodd;fill:#5B5194;}
	.st2{fill-rule:evenodd;clip-rule:evenodd;fill:#5B5194;stroke:#5B5194;stroke-width:6;stroke-miterlimit:10;}
	.st3{fill-rule:evenodd;clip-rule:evenodd;fill:#5B5194;stroke:#5B5194;stroke-width:8;stroke-miterlimit:10;}
	.st4{fill:#5B5194;}
	.st5{fill-rule:evenodd;clip-rule:evenodd;fill:#8C87B4;}
</style>
<g id="Layer_1">
	<path id="Background_Color" class="st0" d="M10.3,0h479.34c5.52,0,9.99,4.47,9.99,9.99v679.06c0,5.52-4.47,9.99-9.99,9.99H10.3
		c-5.52,0-9.99-4.47-9.99-9.99V9.99C0.31,4.47,4.78,0,10.3,0z"/>
	<g id="border">
		<path class="st1" d="M20.31,242.28V28.47c0-5.52,4.48-10,10-10h440c5.52,0,10,4.48,10,10v215.41l20,17.58V10.97
			c0-5.52-4.48-10-10-10h-480c-5.52,0-10,4.48-10,10v248.55L20.31,242.28z"/>
		<path class="st1" d="M480.31,465.03v208.44c0,5.52-4.48,10-10,10h-440c-5.52,0-10-4.48-10-10V467.32l-20-16.43v240.07
			c0,5.52,4.48,10,10,10h480c5.52,0,10-4.48,10-10V448.06L480.31,465.03z"/>
		<polygon class="st1" points="30.31,430.97 30.31,418.97 43.43,418.97 43.5,402.97 30.31,402.97 30.31,398.97 43.52,398.97 
			44.17,262.22 26.67,248.09 25.31,249.25 25.31,249.97 0.31,270.42 0.31,273.63 -9.69,296.97 -1.69,435.97 0.31,437.76 0.31,439.1 
			24.31,458.97 24.26,459.23 27.31,461.97 43.31,442.97 43.37,430.97 		"/>
		<polygon class="st1" points="502.31,275.21 471.31,247.97 454.31,267.97 454.31,277.97 465.31,277.97 465.31,289.97 
			454.31,289.97 454.31,305.97 465.31,305.97 465.31,309.97 454.31,309.97 454.31,447.22 472.25,459.95 474.29,458.25 
			474.31,457.97 500.31,436.69 500.31,436.48 503.31,433.97 		"/>
	</g>
	<g id="Grates">
		<path class="st1" d="M459.34,517.52c-8.06,8.05-8,23-8,23v143h11h18v-185C480.34,498.52,466.96,509.9,459.34,517.52z
			 M477.34,661.52l-18,17v-9l18-18V661.52z M477.34,641.52l-18,17v-9l18-18V641.52z M477.34,621.52l-18,17v-9l18-18V621.52z
			 M477.34,601.52l-18,17v-9l18-18V601.52z M477.34,581.52l-18,17v-9l18-18V581.52z M477.34,561.52l-18,17v-9l18-18V561.52z
			 M477.34,541.52l-18,17v-9l18-18V541.52z M477.34,522.52l-18,17v-9l18-18V522.52z"/>
		<path class="st1" d="M38.34,17.52h-18v185c0,0,13.38-11.38,21-19c8.06-8.05,8-23,8-23v-143H38.34z M41.34,170.52l-18,18v-10l18-17
			V170.52z M41.34,151.52l-18,18v-10l18-17V151.52z M41.34,131.52l-18,18v-10l18-17V131.52z M41.34,111.52l-18,18v-10l18-17V111.52z
			 M41.34,91.52l-18,18v-10l18-17V91.52z M41.34,71.52l-18,18v-10l18-17V71.52z M41.34,51.52l-18,18v-10l18-17V51.52z M41.34,31.52
			l-18,18v-10l18-17V31.52z"/>
	</g>
	<g id="lines">
		<path class="st2" d="M454,638H125H454z"/>
		<path class="st2" d="M456,658h-83H456z"/>
		<path class="st2" d="M375,458v200V458z"/>
		<path class="st2" d="M276,458h99H276z"/>
		<path class="st2" d="M158,433h65H158z"/>
		<path class="st2" d="M159,638V430.18V638z"/>
		<path class="st2" d="M198,638V538V638z"/>
		<path class="st2" d="M48,65h329H48z"/>
		<path class="st2" d="M46,45h83H46z"/>
		<path class="st2" d="M226,245H124H226z"/>
		<path class="st2" d="M127,42v202V42z"/>
		<path class="st2" d="M344,270h-51H344z"/>
		<path class="st2" d="M343,65v207.83V65z"/>
		<path class="st2" d="M304,65v100V65z"/>
		<path class="st3" d="M454,638H125H454z"/>
		<path class="st2" d="M456,658h-83H456z"/>
		<path class="st2" d="M375,454.9v206.08V454.9z"/>
		<path class="st2" d="M276,458h99H276z"/>
		<path class="st2" d="M158,433h65H158z"/>
		<path class="st2" d="M159,638V430.01V638z"/>
		<path class="st2" d="M198,638V538V638z"/>
		<path class="st3" d="M48,65h329H48z"/>
		<path class="st2" d="M46,45h83H46z"/>
		<path class="st2" d="M226,245H124H226z"/>
		<path class="st2" d="M127,42v202V42z"/>
		<path class="st2" d="M344,270h-51H344z"/>
		<path class="st2" d="M343,65v207.83V65z"/>
		<path class="st2" d="M304,65v100V65z"/>
	</g>
	<g id="Circles">
		<path class="st1" d="M198.17,516.23c-6.63,0-12,5.37-12,12c0,6.63,5.37,12,12,12s12-5.37,12-12
			C210.17,521.61,204.8,516.23,198.17,516.23z M198.17,535.23c-3.87,0-7-3.13-7-7c0-3.87,3.13-7,7-7s7,3.13,7,7
			C205.17,532.1,202.04,535.23,198.17,535.23z"/>
		<path class="st1" d="M114.17,626.23c-6.63,0-12,5.37-12,12c0,6.63,5.37,12,12,12s12-5.37,12-12
			C126.17,631.61,120.8,626.23,114.17,626.23z M114.17,645.23c-3.87,0-7-3.13-7-7c0-3.87,3.13-7,7-7c3.87,0,7,3.13,7,7
			C121.17,642.1,118.04,645.23,114.17,645.23z"/>
		<path class="st1" d="M304.17,163.23c-6.63,0-12,5.37-12,12c0,6.63,5.37,12,12,12s12-5.37,12-12
			C316.17,168.61,310.8,163.23,304.17,163.23z M304.17,182.23c-3.87,0-7-3.13-7-7c0-3.87,3.13-7,7-7s7,3.13,7,7
			C311.17,179.1,308.04,182.23,304.17,182.23z"/>
		<path class="st1" d="M388.17,53.23c-6.63,0-12,5.37-12,12c0,6.63,5.37,12,12,12s12-5.37,12-12
			C400.17,58.61,394.8,53.23,388.17,53.23z M388.17,72.23c-3.87,0-7-3.13-7-7c0-3.87,3.13-7,7-7c3.87,0,7,3.13,7,7
			C395.17,69.1,392.04,72.23,388.17,72.23z"/>
	</g>
	<polygon class="st4" points="249.59,438.34 187.77,389.52 249.5,521.06 313.69,389.56 	"/>
	<polygon class="st5" points="248.84,437.74 187.77,389.52 248.84,519.65 	"/>
	<polygon class="st4" points="248.84,315.12 353.96,414.03 248.85,125.9 143.71,414.11 	"/>
	<polygon class="st5" points="143.71,414.09 248.84,315.11 248.84,125.92 	"/>
</g>
<g id="Layer_2">
</g>
</svg>
