<svg height='100px' width='100px'  fill="#000000" xmlns="http://www.w3.org/2000/svg" xmlns:xlink="http://www.w3.org/1999/xlink" xml:space="preserve" version="1.1" style="shape-rendering:geometricPrecision;text-rendering:geometricPrecision;image-rendering:optimizeQuality;" viewBox="0 0 1.429 1.098" x="0px" y="0px" fill-rule="evenodd" clip-rule="evenodd"><defs><style type="text/css">
   
    .fil0 {fill:#000000}
   
  </style></defs><g><path class="fil0" d="M0.212 0.151c-0.027,0.048 -0.042,0.1 -0.045,0.16l0.382 0 0.166 0 0.165 0 0.383 0c-0.004,-0.06 -0.019,-0.112 -0.046,-0.16 -0.03,-0.054 -0.076,-0.103 -0.138,-0.151l-0.364 0 -0.365 0c-0.062,0.048 -0.108,0.097 -0.138,0.151zm-0.054 -0.03l0 0zm-0.054 0.19c0.004,-0.071 0.022,-0.133 0.054,-0.19 0.024,-0.043 0.056,-0.083 0.097,-0.121l-0.032 0c-0.093,0.037 -0.149,0.079 -0.181,0.132 -0.029,0.047 -0.039,0.106 -0.042,0.179l0.104 0zm0 0.787l0 -0.725 -0.104 0 0 0.725 0.104 0zm0.745 -0.59l0 -0.135 -0.134 0 -0.135 0 0 0.135c0,0.037 0.015,0.07 0.04,0.095 0.024,0.024 0.058,0.039 0.095,0.039 0.037,0 0.07,-0.015 0.095,-0.039 0.024,-0.025 0.039,-0.058 0.039,-0.095zm-0.134 -0.063c0.034,0 0.062,0.028 0.062,0.063 0,0.034 -0.028,0.062 -0.062,0.062 -0.035,0 -0.062,-0.028 -0.062,-0.062 0,-0.035 0.027,-0.063 0.062,-0.063zm0.549 0.653l0 -0.725 -0.353 0 0 0.135c0,0.054 -0.022,0.103 -0.057,0.139 -0.036,0.035 -0.085,0.057 -0.139,0.057 -0.054,0 -0.104,-0.022 -0.139,-0.057 -0.036,-0.036 -0.058,-0.085 -0.058,-0.139l0 -0.135 -0.352 0 0 0.725 1.098 0zm0.165 -0.725l-0.103 0 0 0.725 0.103 0 0 -0.725zm-0.157 -0.252c0.031,0.057 0.049,0.119 0.053,0.19l0.104 0c-0.002,-0.073 -0.013,-0.132 -0.042,-0.179 -0.032,-0.053 -0.087,-0.095 -0.18,-0.132l-0.032 0c0.04,0.038 0.072,0.078 0.097,0.121z"></path></g></svg>