<svg height='100px' width='100px'  fill="#000000" xmlns="http://www.w3.org/2000/svg" xmlns:xlink="http://www.w3.org/1999/xlink" xmlns:serif="http://www.serif.com/" viewBox="0 0 101 100" version="1.1" xml:space="preserve" style="" x="0px" y="0px" fill-rule="evenodd" clip-rule="evenodd" stroke-linejoin="round" stroke-miterlimit="1.41421"><rect serif:id="Page 38" x="0.5" y="0" width="100" height="100" style="" fill="none"></rect><path d="M1.5,45.5l12,0l0,20l43,0l0,12l-43,0l-12,0l0,-32Z"></path><path d="M24.5,77.5l0,-12l20,0l0,-43l12,0l0,43l0,12l-32,0Z"></path><path d="M99.5,54.5l-12,0l0,-20l-43,0l0,-12l43,0l12,0l0,32Z"></path><path d="M76.5,22.5l0,12l-20,0l0,43l-12,0l0,-43l0,-12l32,0Z"></path></svg>