<svg height='100px' width='100px'  fill="#000000" xmlns="http://www.w3.org/2000/svg" xmlns:xlink="http://www.w3.org/1999/xlink" version="1.1" x="0px" y="0px" viewBox="0 0 512 512" style="enable-background:new 0 0 512 512;" xml:space="preserve"><g><g><path d="M102.4,213.3c-23.5,0-42.7,19.1-42.7,42.7s19.1,42.7,42.7,42.7s42.7-19.1,42.7-42.7    S125.9,213.3,102.4,213.3z"></path><path d="M256,213.3c-23.5,0-42.7,19.1-42.7,42.7s19.1,42.7,42.7,42.7s42.7-19.1,42.7-42.7S279.5,213.3,256,213.3z"></path><path d="M409.6,213.3c-23.5,0-42.7,19.1-42.7,42.7s19.1,42.7,42.7,42.7s42.7-19.1,42.7-42.7    S433.1,213.3,409.6,213.3z"></path></g></g></svg>