<svg height='100px' width='100px'  fill="#000000" xmlns="http://www.w3.org/2000/svg" data-name="Layer 1" viewBox="0 0 48 48" x="0px" y="0px"><title>error_8</title><path d="M27.68,6a4.34,4.34,0,0,0-7.36,0L.69,37.22a4.37,4.37,0,0,0-.13,4.52A4.29,4.29,0,0,0,4.37,44H43.63a4.29,4.29,0,0,0,3.81-2.26,4.37,4.37,0,0,0-.13-4.52Zm18,34.73A2.32,2.32,0,0,1,43.63,42H4.37a2.32,2.32,0,0,1-2.06-1.23,2.4,2.4,0,0,1,.07-2.48L22,7.11a2.34,2.34,0,0,1,4,0L45.62,38.29h0A2.4,2.4,0,0,1,45.69,40.77ZM29.86,37.51A1,1,0,0,1,29,38a1,1,0,0,1-.51-.14,8.72,8.72,0,0,0-9,0,1,1,0,0,1-1-1.72,10.69,10.69,0,0,1,11,0A1,1,0,0,1,29.86,37.51Zm-11.15-9.8a1,1,0,0,1-1.42,0l-.29-.3-.29.3a1,1,0,0,1-1.42,0,1,1,0,0,1,0-1.42l.3-.29-.3-.29a1,1,0,0,1,1.42-1.42l.29.3.29-.3a1,1,0,0,1,1.42,1.42l-.3.29.3.29A1,1,0,0,1,18.71,27.71Zm14-2-.3.29.3.29a1,1,0,0,1,0,1.42,1,1,0,0,1-1.42,0l-.29-.3-.29.3a1,1,0,0,1-1.42,0,1,1,0,0,1,0-1.42l.3-.29-.3-.29a1,1,0,0,1,1.42-1.42l.29.3.29-.3a1,1,0,0,1,1.42,1.42Z"></path></svg>