<svg height='100px' width='100px'  fill="#000000" xmlns="http://www.w3.org/2000/svg" viewBox="0 0 24 24" x="0px" y="0px"><title>Artboard 65</title><g data-name="Layer 79"><path d="M3,22H18a1,1,0,0,0,1-1V13a1,1,0,0,0-2,0v7H4V7h7a1,1,0,0,0,0-2H3A1,1,0,0,0,2,6V21A1,1,0,0,0,3,22Z"></path><path d="M21.88,2.56a.6.6,0,0,0-.14-.21l-.06-.08a1.27,1.27,0,0,0-.27-.18h0A.84.84,0,0,0,21,2H16a1,1,0,0,0,0,2h2.59l-9.3,9.29a1,1,0,0,0,0,1.42,1,1,0,0,0,1.42,0L20,5.41V8a1,1,0,0,0,2,0V3a1,1,0,0,0-.07-.35A.41.41,0,0,0,21.88,2.56Z"></path></g></svg>