<svg height='100px' width='100px'  fill="#000000" xmlns="http://www.w3.org/2000/svg" xmlns:xlink="http://www.w3.org/1999/xlink" viewBox="0 0 24 24" version="1.1" x="0px" y="0px"><title>file</title><desc>Created with Sketch.</desc><g stroke="none" stroke-width="1" fill="none" fill-rule="evenodd"><path d="M4,0 L13.1715729,-6.66133815e-16 C13.7020059,-7.63572772e-16 14.2107137,0.210713681 14.5857864,0.585786438 L21.4142136,7.41421356 C21.7892863,7.78928632 22,8.29799415 22,8.82842712 L22,22 C22,23.1045695 21.1045695,24 20,24 L4,24 C2.8954305,24 2,23.1045695 2,22 L2,2 C2,0.8954305 2.8954305,2.02906125e-16 4,0 Z M13.7071068,3.70710678 C13.5195704,3.5195704 13.2652165,3.41421356 13,3.41421356 C12.4477153,3.41421356 12,3.86192881 12,4.41421356 L12,9 C12,9.55228475 12.4477153,10 13,10 L17.5857864,10 C17.8510029,10 18.1053568,9.89464316 18.2928932,9.70710678 C18.6834175,9.31658249 18.6834175,8.68341751 18.2928932,8.29289322 L13.7071068,3.70710678 Z" fill="#000000"></path></g></svg>