<svg height='100px' width='100px'  fill="#000000" xmlns:dc="http://purl.org/dc/elements/1.1/" xmlns:cc="http://creativecommons.org/ns#" xmlns:rdf="http://www.w3.org/1999/02/22-rdf-syntax-ns#" xmlns:svg="http://www.w3.org/2000/svg" xmlns="http://www.w3.org/2000/svg" xmlns:sodipodi="http://sodipodi.sourceforge.net/DTD/sodipodi-0.dtd" xmlns:inkscape="http://www.inkscape.org/namespaces/inkscape" version="1.1" x="0px" y="0px" viewBox="10 10 80 80"><g transform="translate(0,-952.36218)"><path style="text-indent:0;text-transform:none;direction:ltr;block-progression:tb;baseline-shift:baseline;color:#000000;enable-background:accumulate;" d="m 32.279353,967.39603 c -5.23654,0 -10.48002,2.11741 -14.40625,6.34375 -7.85252,8.45241 -7.84228,21.88578 0,30.34372 l 29.90625,32.2812 a 3.0003,3.0003 0 0 0 4.40625,0 c 9.98296,-10.7459 19.9545,-21.5036 29.937503,-32.2499 7.8525,-8.45241 7.85241,-21.89104 0,-30.34377 -7.852423,-8.45277 -20.928723,-8.45294 -28.781253,0 l -3.34375,3.5625 -3.34375,-3.59375 c -3.92628,-4.22632 -9.13846,-6.34375 -14.375,-6.34375 z m 0,5.84375 c 3.58508,0 7.16661,1.54384 10,4.59375 l 5.53125,5.96875 a 3.0003,3.0003 0 0 0 4.40625,0 l 5.5,-5.9375 c 5.66677,-6.10004 14.33334,-6.09991 20,0 5.666693,6.09991 5.666603,16.08801 0,22.18752 -9.24519,9.9521 -18.47349,19.8919 -27.71875,29.8437 l -27.71875,-29.875 c -5.66376,-6.10839 -5.69783,-16.08798 -0.0312,-22.18747 2.83334,-3.0499 6.44617,-4.59375 10.03125,-4.59375 z" fill="#000000" fill-opacity="1" stroke="none" marker="none" visibility="visible" display="inline" overflow="visible"></path></g></svg>