<svg height='100px' width='100px'  fill="#000000" xmlns="http://www.w3.org/2000/svg" data-name="Layer 1" viewBox="0 0 100 100" x="0px" y="0px"><title>Help</title><path d="M56.46,77.46H39.73a4.33,4.33,0,0,0-4.31,4.32v13.9A4.33,4.33,0,0,0,39.73,100H56.46a4.33,4.33,0,0,0,4.32-4.32V81.78A4.33,4.33,0,0,0,56.46,77.46Zm30.61-47C86.7,22.66,82.93,16.28,77.38,11,67.15,1.37,55-1.78,41.22.93,29.11,3.33,20.35,10.33,14,20.64c-1.68,2.72-1.5,3.7,1,5.56l12.27,9.11c1.84,1.36,3.14,1.16,4.64-.59,2.11-2.45,4.17-5,6.45-7.24A15.26,15.26,0,0,1,58.1,26.22c4.55,3.45,4.73,9.47.26,13.06a43.77,43.77,0,0,1-5.19,3.16c-2.22,1.31-4.55,2.44-6.62,3.94-7,5-11.71,11.3-10.78,20.55.26,2.5,1.16,3.6,3.68,3.62,3.06,0,6.12,0,9.18,0H58c1.7,0,3-.68,3.27-2.43.76-5.08,4-8.26,8-10.86,2.37-1.51,4.87-2.83,7.16-4.46C84.13,47.37,87.51,39.76,87.07,30.5Z"></path></svg>