<svg height='100px' width='100px'  fill="#000000" xmlns:dc="http://purl.org/dc/elements/1.1/" xmlns:cc="http://creativecommons.org/ns#" xmlns:rdf="http://www.w3.org/1999/02/22-rdf-syntax-ns#" xmlns:svg="http://www.w3.org/2000/svg" xmlns="http://www.w3.org/2000/svg" xmlns:sodipodi="http://sodipodi.sourceforge.net/DTD/sodipodi-0.dtd" xmlns:inkscape="http://www.inkscape.org/namespaces/inkscape" version="1.1" x="0px" y="0px" viewBox="0 0 100 100"><g transform="translate(0,-952.36218)"><path style="text-indent:0;text-transform:none;direction:ltr;block-progression:tb;baseline-shift:baseline;color:#000000;enable-background:accumulate;" d="M 8 20 C 6.429247 20.00016 5.000157 21.42925 5 23 L 5 77 C 5.000157 78.5707 6.429247 79.9998 8 80 L 92 80 C 93.57075 79.9998 94.99984 78.5707 95 77 L 95 23 C 95.008 21.52817 93.77634 20.15343 92.3125 20 C 92.20842 19.995 92.10407 19.995 92 20 L 8 20 z M 11 26 L 89 26 L 89 74 L 11 74 L 11 35 L 56 35 C 57.58494 35.0224 59.03125 33.5851 59.03125 32 C 59.03125 30.41491 57.58494 28.97759 56 29 L 11 29 L 11 26 z M 65 29 C 63.34314 29 62 30.34315 62 32 C 62 33.65686 63.34314 35 65 35 C 66.65685 35 68 33.65686 68 32 C 68 30.34315 66.65685 29 65 29 z M 74 29 C 72.34314 29 71 30.34315 71 32 C 71 33.65686 72.34314 35 74 35 C 75.65685 35 77 33.65686 77 32 C 77 30.34315 75.65685 29 74 29 z M 83 29 C 81.34314 29 80 30.34315 80 32 C 80 33.65686 81.34314 35 83 35 C 84.65685 35 86 33.65686 86 32 C 86 30.34315 84.65685 29 83 29 z M 36.8125 39.96875 A 3.0003 3.0003 0 0 0 34.78125 40.96875 L 24.78125 51.96875 A 3.0003 3.0003 0 0 0 24.78125 56 L 34.78125 67 A 3.0003 3.0003 0 1 0 39.21875 62.96875 L 31.0625 54 L 39.21875 45 A 3.0003 3.0003 0 0 0 36.8125 39.96875 z M 62.8125 39.96875 A 3.0003 3.0003 0 0 0 60.78125 45 L 68.9375 54 L 60.78125 62.96875 A 3.0003 3.0003 0 1 0 65.21875 67 L 75.21875 56 A 3.0003 3.0003 0 0 0 75.21875 51.96875 L 65.21875 40.96875 A 3.0003 3.0003 0 0 0 62.8125 39.96875 z " transform="translate(0,952.36218)" fill="#000000" fill-opacity="1" stroke="none" marker="none" visibility="visible" display="inline" overflow="visible"></path></g></svg>