<svg height='100px' width='100px'  fill="#000000" xmlns:x="http://ns.adobe.com/Extensibility/1.0/" xmlns:i="http://ns.adobe.com/AdobeIllustrator/10.0/" xmlns:graph="http://ns.adobe.com/Graphs/1.0/" xmlns="http://www.w3.org/2000/svg" xmlns:xlink="http://www.w3.org/1999/xlink" version="1.1" x="0px" y="0px" viewBox="0 0 100 100" style="enable-background:new 0 0 100 100;" xml:space="preserve"><g><g i:extraneous="self"><g><path d="M93.2,11.6H6.8c-2.4,0-4.3,1.9-4.3,4.3v68.2c0,2.4,1.9,4.3,4.3,4.3h86.4c2.4,0,4.3-1.9,4.3-4.3V15.9     C97.5,13.5,95.6,11.6,93.2,11.6z M88.9,20.2v49.4L71.2,50.2c-1.8-2-5-2-6.8,0l-7.6,8.3L40.2,39.4c-2-2.3-5.6-2.3-7.6,0L11.1,64     V20.2H88.9z"></path><circle cx="74.7" cy="34.6" r="6.9"></circle></g></g></g></svg>