<svg height='100px' width='100px'  fill="#000000" xmlns="http://www.w3.org/2000/svg" viewBox="0 0 32 32" x="0px" y="0px"><g data-name="Arrow Arrows Direction Up Icon"><path d="M30,20a1,1,0,0,0-2,0v6.58594l-9.10449-9.10449a.99989.99989,0,1,0-1.41406,1.41406L26.58594,28H20a1,1,0,0,0,0,2h9a.98623.98623,0,0,0,.34937-.07056.942.942,0,0,0,.0949-.04492.98428.98428,0,0,0,.20844-.14038.95685.95685,0,0,0,.07611-.06885.98007.98007,0,0,0,.17774-.26367c.00427-.00952.01177-.0166.0158-.02637l.00147-.00244a.98674.98674,0,0,0,.06891-.34668C29.99323,29.02344,30,29.01282,30,29Z"></path><path d="M3,13a.99943.99943,0,0,0,1-1V5.41406l9.10449,9.10449a.99989.99989,0,0,0,1.41406-1.41406L5.41406,4H12a1,1,0,0,0,0-2H3a.98785.98785,0,0,0-.34918.07037.95759.95759,0,0,0-.09516.04517.97992.97992,0,0,0-.20831.14038.96707.96707,0,0,0-.07611.06873.98521.98521,0,0,0-.17792.264c-.00427.00934-.01159.01642-.01556.02594l-.00159.00263a.98566.98566,0,0,0-.06885.34656C2.00684,2.9765,2,2.98712,2,3v9A.99943.99943,0,0,0,3,13Z"></path></g></svg>