<svg height='100px' width='100px'  fill="#000000" xmlns="http://www.w3.org/2000/svg" xmlns:xlink="http://www.w3.org/1999/xlink" version="1.1" x="0px" y="0px" viewBox="0 0 100 100" style="enable-background:new 0 0 100 100;" xml:space="preserve"><path d="M97.4001083,10.3339977c-1.3400269-1.0436401-3.1704102-1.1790771-4.6569214-0.3443604l-14.0253296,7.8754272  C69.2964706,8.4263439,55.8775826,3.275038,41.6988106,4.7495251C19.0091743,7.1089611,1.4164009,26.3576183,1.0058784,49.1658478  c-0.458374,25.4689941,20.1262207,46.3340454,45.4924927,46.3340454c16.9533691,0,32.3051186-9.3338013,40.1629677-24.0958862  c1.0454712-1.9641724,0.2110596-4.4094238-1.8203735-5.3173828c-1.8936157-0.8463135-3.6043701-1.5825806-5.394104-2.3068848  c-2.1300049-0.8620605-4.5322266,0.0266113-5.6831055,2.0154419c-5.5855713,9.652832-15.906498,15.7047119-27.2653847,15.7047119  c-18.3258057,0-33.0467529-15.7303467-31.3695679-34.397644c1.2849121-14.3012085,12.3375854-26.0862446,26.5344238-28.2365131  c8.9451294-1.3547974,17.550415,1.1314087,24.1485023,6.2462769l-13.984745,7.852602  c-1.4779053,0.829834-2.3167114,2.4603271-2.1129761,4.145752c0.1921997,1.6919556,1.3878174,3.0856323,3.0358887,3.5508423  l31.9478188,8.9712524c2.2305298,0.6117554,4.5438232-0.6871338,5.1826172-2.9100952l8.9711914-31.9478779  C99.3036118,13.1300793,98.7101059,11.3982677,97.4001083,10.3339977z"></path></svg>