<svg height='100px' width='100px'  fill="#000000" xmlns="http://www.w3.org/2000/svg" xmlns:xlink="http://www.w3.org/1999/xlink" version="1.1" x="0px" y="0px" viewBox="0 0 512 512" style="enable-background:new 0 0 512 512;" xml:space="preserve"><g><g><g><path d="M100.653,249.998h310.694V185.87c0-2.873-2.343-5.211-5.222-5.211h-300.25c-2.879,0-5.222,2.338-5.222,5.211V249.998z"></path><path d="M100.653,421.758v62.953c0,2.873,2.343,5.211,5.222,5.211h300.25c2.879,0,5.222-2.338,5.222-5.211v-62.953H100.653z"></path><path d="M386.339,195.866h-27.657v-45.555c0-53.368-46.063-96.786-102.682-96.786s-102.682,43.418-102.682,96.786v45.555h-27.657     v-45.555c0-68.588,58.47-124.389,130.339-124.389s130.339,55.801,130.339,124.389V195.866z"></path></g><path d="M462.778,281.267H49.222c-2.879,0-5.222,2.338-5.222,5.211v98.8c0,2.873,2.343,5.211,5.222,5.211h413.557    c2.879,0,5.222-2.338,5.222-5.211v-98.8C468,283.605,465.657,281.267,462.778,281.267z M145.438,353.668l-22.213,22.05    l-17.61-17.671l-17.61,17.671l-22.213-22.05l17.729-17.79l-17.729-17.79l22.213-22.05l17.61,17.671l17.61-17.671l22.213,22.05    l-17.729,17.79L145.438,353.668z M245.694,353.668l-22.213,22.05l-17.61-17.671l-17.61,17.671l-22.213-22.05l17.729-17.79    l-17.729-17.79l22.213-22.05l17.61,17.671l17.61-17.671l22.213,22.05l-17.729,17.79L245.694,353.668z M345.951,353.668    l-22.213,22.05l-17.61-17.671l-17.61,17.671l-22.213-22.05l17.729-17.79l-17.729-17.79l22.213-22.05l17.61,17.671l17.61-17.671    l22.213,22.05l-17.729,17.79L345.951,353.668z M446.207,353.668l-22.212,22.05l-17.61-17.671l-17.61,17.671l-22.213-22.05    l17.729-17.79l-17.729-17.79l22.213-22.05l17.61,17.671l17.61-17.671l22.212,22.05l-17.729,17.79L446.207,353.668z"></path></g></g></svg>