<svg height='100px' width='100px'  fill="#000000" version="1.1" xmlns:rdf="http://www.w3.org/1999/02/22-rdf-syntax-ns#" xmlns:cc="http://creativecommons.org/ns#" xmlns:sodipodi="http://sodipodi.sourceforge.net/DTD/sodipodi-0.dtd" xmlns:dc="http://purl.org/dc/elements/1.1/" xmlns:inkscape="http://www.inkscape.org/namespaces/inkscape" xmlns:svg="http://www.w3.org/2000/svg" xmlns="http://www.w3.org/2000/svg" xmlns:xlink="http://www.w3.org/1999/xlink" x="0px" y="0px" viewBox="0 22.139 100 55.721" enable-background="new 0 22.139 100 55.721" xml:space="preserve"><path d="M41.645,52.773c-5.144,0-9.557,3.094-11.493,7.524h-6.116c-1.936-4.431-6.349-7.524-11.493-7.524
	C5.615,52.773,0,58.391,0,65.317C0,72.246,5.616,77.86,12.543,77.86c5.144,0,9.557-3.097,11.493-7.527h6.116
	c1.936,4.431,6.349,7.527,11.493,7.527c6.928,0,12.548-5.614,12.548-12.543C54.192,58.391,48.573,52.773,41.645,52.773z
	 M12.543,70.333c-2.771,0-5.021-2.244-5.02-5.016c0-2.771,2.249-5.02,5.02-5.02c2.771,0,5.016,2.249,5.016,5.02
	C17.559,68.089,15.315,70.333,12.543,70.333z M41.645,70.333c-2.771,0-5.015-2.245-5.015-5.016h0c0-2.771,2.245-5.021,5.016-5.021
	c2.771,0,5.02,2.249,5.02,5.021C46.665,68.088,44.416,70.333,41.645,70.333z"></path><path d="M12.543,62.537c-1.534,0-2.775,1.246-2.775,2.78c0,0.049-0.002,0.096,0,0.144c0.075,1.468,1.29,2.633,2.776,2.633
	c1.535,0,2.777-1.242,2.777-2.776S14.078,62.537,12.543,62.537z"></path><circle cx="41.645" cy="65.315" r="2.778"></circle><path d="M44.194,50.021c1.658,0.222,3.302,0.765,4.84,1.653
	c1.54,0.889,2.827,2.045,3.848,3.371l0.873-1.514l0.875-1.515l0.874-1.514c-1.659-0.221-3.304-0.758-4.844-1.646
	c-1.538-0.888-2.831-2.04-3.852-3.365l-0.874,1.514l-0.866,1.5L44.194,50.021L44.194,50.021z"></path><path d="M87.457,22.139c-5.145,0-9.559,3.098-11.493,7.528h-6.116c-1.935-4.43-6.349-7.528-11.492-7.528
	c-6.929,0-12.548,5.615-12.548,12.543s5.619,12.544,12.548,12.544c5.144,0,9.558-3.094,11.492-7.523h6.116
	c1.935,4.43,6.349,7.523,11.493,7.523c6.927,0,12.543-5.616,12.543-12.544C100,27.754,94.386,22.139,87.457,22.139z M58.355,39.703
	c-2.771,0-5.021-2.25-5.021-5.021c0-2.771,2.249-5.015,5.021-5.015s5.016,2.245,5.017,5.015
	C63.371,37.454,61.127,39.703,58.355,39.703z M87.457,39.703c-2.771,0-5.017-2.25-5.017-5.021c0-2.771,2.245-5.015,5.017-5.015
	s5.021,2.244,5.02,5.015h0.001C92.478,37.453,90.229,39.703,87.457,39.703z"></path><path d="M87.457,31.906c-1.534,0-2.775,1.242-2.775,2.776c-0.001,1.535,1.241,2.781,2.775,2.781c1.533,0,2.775-1.246,2.775-2.781
	c0-0.047,0.002-0.095,0-0.143C90.158,33.072,88.943,31.906,87.457,31.906z"></path><circle cx="58.355" cy="34.685" r="2.778"></circle></svg>