<svg height='100px' width='100px'  fill="#000000" xmlns:dc="http://purl.org/dc/elements/1.1/" xmlns:cc="http://creativecommons.org/ns#" xmlns:rdf="http://www.w3.org/1999/02/22-rdf-syntax-ns#" xmlns:svg="http://www.w3.org/2000/svg" xmlns="http://www.w3.org/2000/svg" xmlns:sodipodi="http://sodipodi.sourceforge.net/DTD/sodipodi-0.dtd" xmlns:inkscape="http://www.inkscape.org/namespaces/inkscape" viewBox="0 0 6.3499999 6.3500002" version="1.1" x="0px" y="0px"><g transform="translate(0,-290.64999)"><path style="color:#000000;font-style:normal;font-variant:normal;font-weight:normal;font-stretch:normal;font-size:medium;line-height:normal;font-family:sans-serif;font-variant-ligatures:normal;font-variant-position:normal;font-variant-caps:normal;font-variant-numeric:normal;font-variant-alternates:normal;font-feature-settings:normal;text-indent:0;text-align:start;text-decoration:none;text-decoration-line:none;text-decoration-style:solid;text-decoration-color:#000000;letter-spacing:normal;word-spacing:normal;text-transform:none;writing-mode:lr-tb;direction:ltr;text-orientation:mixed;dominant-baseline:auto;baseline-shift:baseline;text-anchor:start;white-space:normal;shape-padding:0;clip-rule:nonzero;display:inline;overflow:visible;visibility:visible;opacity:1;isolation:auto;mix-blend-mode:normal;color-interpolation:sRGB;color-interpolation-filters:linearRGB;solid-color:#000000;solid-opacity:1;vector-effect:none;fill:#000000;fill-opacity:1;fill-rule:evenodd;stroke:none;stroke-width:2;stroke-linecap:butt;stroke-linejoin:round;stroke-miterlimit:4;stroke-dasharray:none;stroke-dashoffset:0;stroke-opacity:1;paint-order:stroke fill markers;color-rendering:auto;image-rendering:auto;shape-rendering:auto;text-rendering:auto;enable-background:accumulate" d="m 12.003906,0.99804688 c -2.869524,0 -5.4767205,0.45903272 -7.4492185,1.24804692 -0.986249,0.394507 -1.8208194,0.865235 -2.4589844,1.46875 C 1.4575382,4.3183587 0.99607984,5.1138653 0.99609375,6.0039062 L 1,18 c 2e-7,0.890079 0.4614419,1.679688 1.0996094,2.283203 0.6381674,0.603515 1.4707835,1.08014 2.4570312,1.474609 C 6.529136,22.546827 9.1304882,23 12,23 c 2.869512,0 5.470864,-0.453173 7.443359,-1.242188 0.986248,-0.394469 1.818864,-0.871094 2.457032,-1.474609 C 22.538558,19.679688 23,18.890079 23,18 L 23.002,6.0039062 C 23.001967,5.1138653 22.540509,4.3183587 21.902344,3.7148438 21.264179,3.1113288 20.429609,2.6406008 19.443359,2.2460938 17.470861,1.4570796 14.873431,0.99804688 12.003906,0.99804688 Z m 0,2.00000002 c 2.653348,0 5.04852,0.4408755 6.695313,1.0996093 0.823396,0.3291969 1.456195,0.7167 1.830078,1.0703126 0.373882,0.3533858 0.47266,0.6214493 0.472656,0.8359374 -1e-6,0.2146772 -0.09877,0.4725971 -0.472656,0.8261719 -0.37389,0.3537638 -1.006682,0.7409645 -1.830078,1.0703125 C 17.052426,8.5591245 14.657236,9 12.003906,9 9.3505766,9 6.9475736,8.5591245 5.3007812,7.9003906 4.4773847,7.5711938 3.8426399,7.1836529 3.46875,6.8300781 3.0948599,6.4766923 2.9960955,6.2184322 2.9960938,6.0039062 2.9960904,5.789607 3.0948667,5.5215436 3.46875,5.1679688 3.842633,4.814205 4.4773847,4.4270043 5.3007812,4.0976562 6.9475739,3.4389224 9.3505589,2.9980469 12.003906,2.9980469 Z m -9.0078122,5.96875 C 3.4603158,9.2635297 3.9772799,9.5287978 4.5546875,9.7597656 6.5271821,10.54878 9.1344009,11 12.003906,11 c 2.869506,0 5.466959,-0.45122 7.439453,-1.2402344 0.577408,-0.2309678 1.094372,-0.4962359 1.558594,-0.7929687 L 21,12.013717 c -0.0045,0.211726 -0.105414,0.472911 -0.470703,0.818359 -0.373882,0.353764 -1.006682,0.740965 -1.830078,1.070313 -1.646793,0.658734 -4.041966,1.099609 -6.695313,1.099609 -2.6533464,0 -5.0563317,-0.440875 -6.7031248,-1.099609 C 4.4773843,13.573147 3.8426335,13.185644 3.46875,12.832031 3.1120533,12.49489 3.0089983,12.238538 3,12.029297 Z M 3,14.96875 c 0.4632412,0.293581 0.9789315,0.554849 1.5546875,0.785156 1.9724976,0.789014 4.5796937,1.248047 7.4492185,1.248047 2.869526,0 5.466956,-0.459033 7.439453,-1.248047 C 20.019692,15.523369 20.536416,15.2627 21,14.96875 V 18 c 0,0.214677 -0.09877,0.476503 -0.472656,0.830078 -0.373886,0.353764 -1.004729,0.740965 -1.828125,1.070313 C 17.052426,20.559124 14.653335,21 12,21 9.3466643,21 6.9475739,20.559124 5.3007812,19.900391 4.4773851,19.571194 3.8465442,19.183691 3.4726562,18.830078 3.0987684,18.476692 3,18.214526 3,18 Z" transform="matrix(0.26458334,0,0,0.26458334,0,290.64999)"></path></g></svg>