<svg height='100px' width='100px'  fill="#000000" xmlns="http://www.w3.org/2000/svg" xmlns:xlink="http://www.w3.org/1999/xlink" version="1.1" x="0px" y="0px" viewBox="0 0 1024 1024" style="enable-background:new 0 0 1024 1024;" xml:space="preserve"><g><g><g><path d="M120,183.3c43.5,0,87,0,130.5,0c6.1,0,12.2,0,18.2,0c-10-10-20-20-30-30c0,6.4,0,12.8,0,19.1     c0,17.5,0,34.9,0,52.4c0,25.7,0,51.4,0,77.1c0,31.4,0,62.7,0,94.1c0,34.3,0,68.7,0,103c0,34.8,0,69.7,0,104.5c0,32.3,0,64.7,0,97     c0,27.3,0,54.6,0,82c0,19.7,0,39.3,0,59c0,9.4-0.2,18.7,0,28.1c0,0.4,0,0.8,0,1.2c10-10,20-20,30-30c-43.9,0-87.9,0-131.8,0     c-6.9,0-14.1,0.5-21-0.3c2.7,0.4,5.3,0.7,8,1.1c-3.1-0.5-6.1-1.3-9-2.5c2.4,1,4.8,2,7.2,3c-1.6-0.7-3.1-1.7-4.6-2.5     c-3.7-1.9,3.3,2.1,2.9,2.4c-0.2,0.1-2.2-2-2.4-2.2c-0.6-0.6-1.1-1.3-1.8-1.9c-2-1.8,3.4,5.5,2.3,3c-0.8-1.8-2-3.4-2.8-5.2     c1,2.4,2,4.8,3,7.2c-1.2-2.9-2-5.9-2.5-9c0.4,2.7,0.7,5.3,1.1,8c-0.7-6.8-0.3-13.8-0.3-20.7c0-15.7,0-31.4,0-47c0-52,0-104,0-156     c0-63.1,0-126.2,0-189.3c0-54.5,0-108.9,0-163.4c0-26.1-0.2-52.2,0-78.4c0-1.7,0.1-3.3,0.3-5c-0.4,2.7-0.7,5.3-1.1,8     c0.5-3.1,1.3-6.1,2.5-9c-1,2.4-2,4.8-3,7.2c0.7-1.6,1.7-3.1,2.5-4.6c1.9-3.7-2.1,3.3-2.4,2.9c-0.1-0.2,2-2.2,2.2-2.4     c0.6-0.6,1.3-1.1,1.9-1.8c1.8-2-5.5,3.4-3,2.3c1.8-0.8,3.4-2,5.2-2.8c-2.4,1-4.8,2-7.2,3c2.9-1.2,5.9-2,9-2.5     c-2.7,0.4-5.3,0.7-8,1.1C117.3,183.4,118.6,183.3,120,183.3c15.7-0.3,30.7-13.6,30-30c-0.7-16-13.2-30.4-30-30     C85.1,124,57.2,152,57,186.9c0,4,0,8,0,12c0,21,0,41.9,0,62.9c0,33.4,0,66.7,0,100.1c0,40.2,0,80.5,0,120.7     c0,41.5,0,83.1,0,124.6c0,37.4,0,74.8,0,112.2c0,27.4,0,54.8,0,82.1c0,11.9-0.2,23.9,0,35.8c0.5,34.8,28.2,62.8,63.1,63.4     c10.6,0.2,21.2,0,31.8,0c36.3,0,72.7,0,109,0c2.6,0,5.2,0,7.8,0c16.2,0,30-13.7,30-30c0-6.4,0-12.8,0-19.1c0-17.5,0-34.9,0-52.4     c0-25.7,0-51.4,0-77.1c0-31.4,0-62.7,0-94.1c0-34.3,0-68.7,0-103c0-34.8,0-69.7,0-104.5c0-32.3,0-64.7,0-97c0-27.3,0-54.6,0-82     c0-19.7,0-39.3,0-59c0-9.4,0.1-18.7,0-28.1c0-0.4,0-0.8,0-1.2c0-16.2-13.7-30-30-30c-43.5,0-87,0-130.5,0c-6.1,0-12.2,0-18.2,0     c-15.7,0-30.7,13.8-30,30C90.7,169.5,103.2,183.3,120,183.3z"></path></g></g><g><g><path d="M907,186.3c0,21.8,0,43.6,0,65.5c0,52,0,104,0,156c0,63.1,0,126.2,0,189.3c0,54,0,108.1,0,162.1     c0,25.9,0.2,51.8,0,77.8c0,1.6-0.1,3.3-0.3,4.9c0.4-2.7,0.7-5.3,1.1-8c-0.5,3.1-1.3,6.1-2.5,9c1-2.4,2-4.8,3-7.2     c-0.7,1.6-1.7,3.1-2.5,4.6c-1.9,3.7,2.1-3.3,2.4-2.9c0.1,0.2-2,2.2-2.2,2.4c-0.6,0.6-1.3,1.1-1.9,1.8c-1.8,2,5.5-3.4,3-2.3     c-1.8,0.8-3.4,2-5.2,2.8c2.4-1,4.8-2,7.2-3c-2.9,1.2-5.9,2-9,2.5c2.7-0.4,5.3-0.7,8-1.1c-5.8,0.6-11.7,0.3-17.6,0.3     c-11.8,0-23.7,0-35.5,0c-27,0-53.9,0-80.9,0c-6.3,0-12.6,0-18.9,0c10,10,20,20,30,30c0-6.4,0-12.8,0-19.1c0-17.5,0-34.9,0-52.4     c0-25.7,0-51.4,0-77.1c0-31.4,0-62.7,0-94.1c0-34.3,0-68.7,0-103c0-34.8,0-69.7,0-104.5c0-32.3,0-64.7,0-97c0-27.3,0-54.6,0-82     c0-19.7,0-39.3,0-59c0-9.4,0.2-18.7,0-28.1c0-0.4,0-0.8,0-1.2c-10,10-20,20-30,30c43.9,0,87.9,0,131.8,0c6.9,0,14.1-0.5,21,0.3     c-2.7-0.4-5.3-0.7-8-1.1c3.1,0.5,6.1,1.3,9,2.5c-2.4-1-4.8-2-7.2-3c1.6,0.7,3.1,1.7,4.6,2.5c3.7,1.9-3.3-2.1-2.9-2.4     c0.2-0.1,2.2,2,2.4,2.2c0.6,0.6,1.1,1.3,1.8,1.9c2,1.8-3.4-5.5-2.3-3c0.8,1.8,2,3.4,2.8,5.2c-1-2.4-2-4.8-3-7.2     c1.2,2.9,2,5.9,2.5,9c-0.4-2.7-0.7-5.3-1.1-8C906.9,183.5,907,184.9,907,186.3c0.3,15.7,13.6,30.7,30,30c16-0.7,30.4-13.2,30-30     c-0.7-34.9-28.6-62.6-63.5-63c-8.6-0.1-17.2,0-25.8,0c-32.3,0-64.6,0-96.9,0c-8.5,0-17,0-25.5,0c-16.2,0-30,13.7-30,30     c0,6.4,0,12.8,0,19.1c0,17.5,0,34.9,0,52.4c0,25.7,0,51.4,0,77.1c0,31.4,0,62.7,0,94.1c0,34.3,0,68.7,0,103     c0,34.8,0,69.7,0,104.5c0,32.3,0,64.7,0,97c0,27.3,0,54.6,0,82c0,19.7,0,39.3,0,59c0,9.4-0.1,18.7,0,28.1c0,0.4,0,0.8,0,1.2     c0,16.2,13.7,30,30,30c28.1,0,56.2,0,84.3,0c17,0,34,0,51,0c4.1,0,8.3,0,12.4,0c16.2-0.1,30.3-5.7,42.6-15.9     c14.7-12.1,21.4-31,21.4-49.6c0-5,0-10.1,0-15.1c0-21.7,0-43.4,0-65.1c0-32.9,0-65.9,0-98.8c0-38.9,0-77.9,0-116.8     c0-40.1,0-80.1,0-120.2c0-36.3,0-72.7,0-109c0-27.3,0-54.6,0-81.9c0-13.4,0.1-26.8,0-40.3c0-0.6,0-1.2,0-1.8     c0-15.7-13.8-30.7-30-30C920.7,157,907,169.5,907,186.3z"></path></g></g><g><g><path d="M725.3,153.3c0,6.4,0,12.8,0,19.1c0,17.5,0,34.9,0,52.4c0,25.7,0,51.4,0,77.1c0,31.4,0,62.7,0,94.1     c0,34.3,0,68.7,0,103c0,34.8,0,69.7,0,104.5c0,32.3,0,64.7,0,97c0,27.3,0,54.6,0,82c0,19.7,0,39.3,0,59c0,9.4-0.2,18.7,0,28.1     c0,0.4,0,0.8,0,1.2c10-10,20-20,30-30c-16.2,0-32.5,0-48.7,0c-38.6,0-77.2,0-115.9,0c-46.9,0-93.7,0-140.6,0     c-40.5,0-81,0-121.5,0c-19.7,0-39.4-0.5-59,0c-0.3,0-0.6,0-0.8,0c10,10,20,20,30,30c0-6.4,0-12.8,0-19.1c0-17.5,0-34.9,0-52.4     c0-25.7,0-51.4,0-77.1c0-31.4,0-62.7,0-94.1c0-34.3,0-68.7,0-103c0-34.8,0-69.7,0-104.5c0-32.3,0-64.7,0-97c0-27.3,0-54.6,0-82     c0-19.7,0-39.3,0-59c0-9.4,0.2-18.7,0-28.1c0-0.4,0-0.8,0-1.2c-10,10-20,20-30,30c16.2,0,32.5,0,48.7,0c38.6,0,77.2,0,115.9,0     c46.9,0,93.7,0,140.6,0c40.5,0,81,0,121.5,0c19.7,0,39.4,0.4,59,0c0.3,0,0.6,0,0.8,0c15.7,0,30.7-13.8,30-30     c-0.7-16.3-13.2-30-30-30c-16.2,0-32.5,0-48.7,0c-38.6,0-77.2,0-115.9,0c-46.9,0-93.7,0-140.6,0c-40.5,0-81,0-121.5,0     c-19.7,0-39.4-0.4-59,0c-0.3,0-0.6,0-0.8,0c-16.2,0-30,13.7-30,30c0,6.4,0,12.8,0,19.1c0,17.5,0,34.9,0,52.4     c0,25.7,0,51.4,0,77.1c0,31.4,0,62.7,0,94.1c0,34.3,0,68.7,0,103c0,34.8,0,69.7,0,104.5c0,32.3,0,64.7,0,97c0,27.3,0,54.6,0,82     c0,19.7,0,39.3,0,59c0,9.4-0.1,18.7,0,28.1c0,0.4,0,0.8,0,1.2c0,16.2,13.7,30,30,30c16.2,0,32.5,0,48.7,0c38.6,0,77.2,0,115.9,0     c46.9,0,93.7,0,140.6,0c40.5,0,81,0,121.5,0c19.7,0,39.4,0.4,59,0c0.3,0,0.6,0,0.8,0c16.2,0,30-13.7,30-30c0-6.4,0-12.8,0-19.1     c0-17.5,0-34.9,0-52.4c0-25.7,0-51.4,0-77.1c0-31.4,0-62.7,0-94.1c0-34.3,0-68.7,0-103c0-34.8,0-69.7,0-104.5c0-32.3,0-64.7,0-97     c0-27.3,0-54.6,0-82c0-19.7,0-39.3,0-59c0-9.4,0.1-18.7,0-28.1c0-0.4,0-0.8,0-1.2c0-15.7-13.8-30.7-30-30     C739,124,725.3,136.5,725.3,153.3z"></path></g></g><g><g><path d="M937,266.8c-20.5,0-40.9,0-61.4,0c-32.6,0-65.2,0-97.9,0c-7.5,0-15,0-22.5,0c-15.7,0-30.7,13.8-30,30     c0.7,16.3,13.2,30,30,30c20.5,0,40.9,0,61.4,0c32.6,0,65.2,0,97.9,0c7.5,0,15,0,22.5,0c15.7,0,30.7-13.8,30-30     C966.3,280.5,953.8,266.8,937,266.8L937,266.8z"></path></g></g><g><g><path d="M268.7,266.8c-20.5,0-40.9,0-61.4,0c-32.6,0-65.2,0-97.9,0c-7.5,0-15,0-22.5,0c-15.7,0-30.7,13.8-30,30     c0.7,16.3,13.2,30,30,30c20.5,0,40.9,0,61.4,0c32.6,0,65.2,0,97.9,0c7.5,0,15,0,22.5,0c15.7,0,30.7-13.8,30-30     C298,280.5,285.6,266.8,268.7,266.8L268.7,266.8z"></path></g></g><g><g><path d="M937,410.3c-20.5,0-40.9,0-61.4,0c-32.6,0-65.2,0-97.9,0c-7.5,0-15,0-22.5,0c-15.7,0-30.7,13.8-30,30     c0.7,16.3,13.2,30,30,30c20.5,0,40.9,0,61.4,0c32.6,0,65.2,0,97.9,0c7.5,0,15,0,22.5,0c15.7,0,30.7-13.8,30-30     C966.3,424,953.8,410.3,937,410.3L937,410.3z"></path></g></g><g><g><path d="M268.7,410.3c-20.5,0-40.9,0-61.4,0c-32.6,0-65.2,0-97.9,0c-7.5,0-15,0-22.5,0c-15.7,0-30.7,13.8-30,30     c0.7,16.3,13.2,30,30,30c20.5,0,40.9,0,61.4,0c32.6,0,65.2,0,97.9,0c7.5,0,15,0,22.5,0c15.7,0,30.7-13.8,30-30     C298,424,285.6,410.3,268.7,410.3L268.7,410.3z"></path></g></g><g><g><path d="M937,553.7c-20.5,0-40.9,0-61.4,0c-32.6,0-65.2,0-97.9,0c-7.5,0-15,0-22.5,0c-15.7,0-30.7,13.8-30,30     c0.7,16.3,13.2,30,30,30c20.5,0,40.9,0,61.4,0c32.6,0,65.2,0,97.9,0c7.5,0,15,0,22.5,0c15.7,0,30.7-13.8,30-30     C966.3,567.5,953.8,553.7,937,553.7L937,553.7z"></path></g></g><g><g><path d="M268.7,553.7c-20.5,0-40.9,0-61.4,0c-32.6,0-65.2,0-97.9,0c-7.5,0-15,0-22.5,0c-15.7,0-30.7,13.8-30,30     c0.7,16.3,13.2,30,30,30c20.5,0,40.9,0,61.4,0c32.6,0,65.2,0,97.9,0c7.5,0,15,0,22.5,0c15.7,0,30.7-13.8,30-30     C298,567.5,285.6,553.7,268.7,553.7L268.7,553.7z"></path></g></g><g><g><path d="M937,697.2c-20.5,0-40.9,0-61.4,0c-32.6,0-65.2,0-97.9,0c-7.5,0-15,0-22.5,0c-15.7,0-30.7,13.8-30,30     c0.7,16.3,13.2,30,30,30c20.5,0,40.9,0,61.4,0c32.6,0,65.2,0,97.9,0c7.5,0,15,0,22.5,0c15.7,0,30.7-13.8,30-30     C966.3,711,953.8,697.2,937,697.2L937,697.2z"></path></g></g><g><g><path d="M268.7,697.2c-20.5,0-40.9,0-61.4,0c-32.6,0-65.2,0-97.9,0c-7.5,0-15,0-22.5,0c-15.7,0-30.7,13.8-30,30     c0.7,16.3,13.2,30,30,30c20.5,0,40.9,0,61.4,0c32.6,0,65.2,0,97.9,0c7.5,0,15,0,22.5,0c15.7,0,30.7-13.8,30-30     C298,711,285.6,697.2,268.7,697.2L268.7,697.2z"></path></g></g><g><g><path d="M268.7,542c16.2,0,32.5,0,48.7,0c38.6,0,77.2,0,115.9,0c46.9,0,93.7,0,140.6,0c40.5,0,81,0,121.5,0     c19.7,0,39.4,0.4,59,0c0.3,0,0.6,0,0.8,0c15.7,0,30.7-13.8,30-30c-0.7-16.3-13.2-30-30-30c-16.2,0-32.5,0-48.7,0     c-38.6,0-77.2,0-115.9,0c-46.9,0-93.7,0-140.6,0c-40.5,0-81,0-121.5,0c-19.7,0-39.4-0.4-59,0c-0.3,0-0.6,0-0.8,0     c-15.7,0-30.7,13.8-30,30C239.5,528.3,251.9,542,268.7,542L268.7,542z"></path></g></g></g></svg>