<svg height='100px' width='100px'  fill="#000000" xmlns="http://www.w3.org/2000/svg" xmlns:xlink="http://www.w3.org/1999/xlink" version="1.1" x="0px" y="0px" viewBox="0 0 100 100" enable-background="new 0 0 100 100" xml:space="preserve"><g><path d="M94,57.2L79.6,47l10.9-14.5l-17.9-0.8L74,13.5l-15.6,9L50,6.5l-8.4,16.1l-15.6-9l1.5,18.1L9.6,32.4L20.4,47L6,57.2   l16.8,6.4L16.4,80l17.4-3.7l3.6,17.2L50,81.1l12.5,12.5l3.6-17.2L83.6,80l-6.4-16.4L94,57.2z M53.5,69.5c-0.8,0.8-2,1.2-3.5,1.2   c-1.5,0-2.7-0.4-3.5-1.2c-0.8-0.8-1.2-1.9-1.2-3.4c0-1.5,0.4-2.7,1.2-3.4c0.8-0.8,2-1.2,3.6-1.2c1.5,0,2.7,0.4,3.5,1.2   c0.8,0.8,1.2,1.9,1.2,3.4C54.7,67.6,54.3,68.7,53.5,69.5z M53.3,56.9h-6.6l-1.4-26.5h9.4L53.3,56.9z"></path></g></svg>