<svg height='100px' width='100px'  fill="#000000" xmlns="http://www.w3.org/2000/svg" data-name="Layer 1" viewBox="0 0 64 64" x="0px" y="0px"><title>Consumer-customer- buyer-purchaser- shopper</title><path d="M12,13A5,5,0,0,0,2,13v1H12Z"></path><circle cx="7" cy="5" r="3"></circle><path d="M57,8a5,5,0,0,0-5,5v1H62V13A5,5,0,0,0,57,8Z"></path><circle cx="57" cy="5" r="3"></circle><polygon points="44.429 22.286 45.286 23.143 47 18 41.857 19.714 42.714 20.571 39 26 44.429 22.286"></polygon><polygon points="18.571 22.286 24 26 20.286 20.571 21.143 19.714 16 18 17.714 23.143 18.571 22.286"></polygon><path d="M12,61A5,5,0,0,0,2,61v1H12Z"></path><circle cx="7" cy="53" r="3"></circle><path d="M57,56a5,5,0,0,0-5,5v1H62V61A5,5,0,0,0,57,56Z"></path><circle cx="57" cy="53" r="3"></circle><polygon points="18.714 44.857 17 50 22.143 48.286 21.286 47.429 25 42 19.571 45.714 18.714 44.857"></polygon><polygon points="45.429 45.714 40 42 43.714 47.429 42.857 48.286 48 50 46.286 44.857 45.429 45.714"></polygon><path d="M24,34c0,3.866,2.865,7,6.4,7a5.891,5.891,0,0,0,1.6-.229A5.891,5.891,0,0,0,33.6,41c3.535,0,6.4-3.134,6.4-7s-2.865-7-6.4-7a5.521,5.521,0,0,0-.7.052A5,5,0,0,0,28,23v2a3,3,0,0,1,2.826,2.032C30.684,27.02,30.544,27,30.4,27,26.865,27,24,30.134,24,34Zm11,2H33a3,3,0,0,0-3-3V31A5.006,5.006,0,0,1,35,36Z"></path></svg>