<svg height='100px' width='100px'  fill="#000000" xmlns="http://www.w3.org/2000/svg" xmlns:xlink="http://www.w3.org/1999/xlink" version="1.1" x="0px" y="0px" viewBox="0 0 100 100" enable-background="new 0 0 100 100" xml:space="preserve"><g><path d="M36.3,15.09c-0.49,2.02,0.4,4.11,2.11,5.19c2.73,1.72,6.58,0.3,7.39-3.03c0.63-2.6-0.97-5.2-3.59-5.8   c-2.62-0.6-5.27,1.03-5.9,3.65L36.3,15.09z M39.37,25.08c-0.97,0.48-1.97,0.6-2.89,0.44c-0.25-0.04-0.5-0.11-0.73-0.19   c-0.39,0.66-0.74,1.35-1.05,2.06h-2.14c0.42-1.1,0.93-2.15,1.52-3.14c-0.29-0.3-0.54-0.65-0.73-1.03c-0.1-0.2-0.18-0.4-0.25-0.61   c-1.22,2.08-2.01,4.41-2.04,6.84L31,32.46l0.78,0.56c-2.83,3.93-3.88,4.64-9.09,8.16l-1.11,0.75c1.58,0.21,3.33,0.36,5.17,0.44   c2.31,0.1,4.78,0.08,7.3-0.09v-0.02l0.91-0.08c5.36-0.47,10.77-1.64,15.1-3.85c3.52-1.8,6.331-4.29,7.79-7.67   c0.49-0.93,1.311-1.77,2.32-2.1c1.02-0.33,2.02-0.09,2.859,0.53C64.35,30.06,64,32.83,64,34.36V53v0.029   c-0.05,4.291-1.79,8.24-4.54,11.111C59.04,64.58,58.59,65,58.13,65.38c2.56-0.069,4.479-0.96,5.87-2.45   c2.57-2.77,3.13-7.38,3.1-11.05c-0.039-9.54-0.07-19.08-0.09-28.62c-0.09-1.69-0.01-2.64-1.85-3.27   c0.369,1.25,0.189,2.51-0.57,3.58c0.801,1.19,1.48,2.48,2.01,3.84H64.45c-0.39-0.88-0.851-1.73-1.37-2.52   c-0.27,0.14-0.551,0.26-0.85,0.34c-2.9,0.84-7.881-2.01-10.01-3.85c-1.211-1.04-2.031-2.49-2.271-4.1   c-0.71-0.02-1.42,0.01-2.13,0.09c-0.02,0.12-0.05,0.24-0.08,0.36c-0.3,1.25-0.96,2.43-1.93,3.36c-2.3,2.2-3.61,2.61-6.43,4.02   L39.37,25.08z M33.31,18.88l0.49-2.79c0.07-0.38,0.41-0.81,0.57-1.47c0.89-3.66,4.61-5.97,8.29-5.13c1.21,0.28,2.35,0.89,3.26,1.79   c1.9-0.3,4.06-0.2,5.96,0.09c1.66-1.67,4.14-2.41,6.47-1.88c3.041,0.7,4.711,3.25,5.521,6.05l0.649,2.25   c3.33,0.39,4.541,2.35,4.541,5.57l0.01,18.75c2.189,0.5,3.779,2.47,3.779,4.72c0,2.5-1.22,4.57-3.75,5.17   c0.021,4.189-0.699,9.09-3.629,12.25c-1.421,1.54-3.281,2.57-5.611,2.939c0.73,1.07,1.16,2.351,1.16,3.73v4.62   c6.391,4.01,10.49,10.87,11.33,18.34c0.061,0.55-0.34,1.04-0.879,1.101c-0.041,0-0.07,0.01-0.111,0.01l0,0H48.69H33.02h-6.08   c-0.6,0-1.07-0.69-0.98-1.18c0.85-7.34,4.85-14.09,11.08-18.11c-0.01-1.94-0.01-3.671-0.01-4.8c0-1.391,0.41-2.68,1.14-3.75   l0.06-0.09c-2.27-0.391-4.33-1.431-5.94-3.33c-2.01-2.371-3.26-6.061-3.26-11.44l0.01-0.46c-2.57-0.561-3.83-2.66-3.83-5.19   c0-0.84,0.22-1.64,0.61-2.34l0.01-0.01c-2.62-0.15-5.02-0.44-7.03-0.81l-2.37-0.44l1.99-1.36c1.35-0.93,2.34-1.59,3.2-2.18   c4.16-2.81,5.54-3.74,7.41-6.1l0.08-4c0.04-3.92,1.76-7.57,4.24-10.54L33.31,18.88z M38.48,23.3l0.93-0.47   c-0.13-0.03-0.27-0.07-0.4-0.11c-1.62-0.48-2.94-1.51-3.83-2.93c0,0-0.2,1.1-0.23,1.25c-0.08,0.48-0.01,0.92,0.18,1.3   c0.16,0.31,0.39,0.58,0.67,0.79c0.29,0.21,0.64,0.36,1.02,0.43c0.52,0.09,1.09,0.02,1.65-0.26H38.48z M47.88,15.35   c0.68-0.06,1.36-0.09,2.05-0.07c0.1-0.71,0.31-1.4,0.63-2.04c-0.121-0.01-0.241-0.02-0.371-0.03c-0.95-0.08-1.99-0.12-2.94-0.05   c0.35,0.71,0.56,1.45,0.64,2.2L47.88,15.35z M61.09,18.31c0.41-0.81,0.59-1.72,0.51-2.62l-0.01-0.16   c-0.24-1.98-1.71-3.62-3.689-4.07c-2.621-0.6-5.271,1.03-5.9,3.65c-0.51,2.12,0.54,4.35,2.41,5.36c2.38,1.29,5.46,0.31,6.689-2.15   L61.09,18.31z M58.65,22.73c1.369,0.51,2.709,1.19,3.979,0.04c0.99-0.9,0.729-1.79,0.399-2.93c-0.209,0.04-0.42,0.1-0.609,0.18   c-0.449,0.19-1.51,2.03-3.77,2.7V22.73z M54.01,67.82c-1.619,0.63-3.359,0.979-5.16,0.979c-1.7,0-3.32-0.29-4.84-0.84v6.58   c0,1.271,0.55,2.46,1.46,3.319c1.96,1.861,5.219,1.771,7.09-0.01c0.89-0.85,1.449-2.02,1.449-3.31v-6.729V67.82z M39.35,65.221   C39,64.91,38.66,64.59,38.33,64.25c-2.63-2.76-4.26-6.54-4.32-10.74c-0.03-3.06,0.03-6.16,0.04-9.22C33.02,44.36,32,44.4,31,44.42   c0,2.63-0.01,5.27,0.01,7.9c0,4.859,1.07,8.119,2.78,10.15C35.24,64.189,37.19,65.029,39.35,65.221z M29,44.43   c-0.24,0-0.47-0.01-0.71-0.01c-0.7,0.54-1.11,1.36-1.11,2.25c0,1.42,0.41,2.56,1.83,3.11L29,44.43z M69.061,44.22v2.92l0.01,2.79   c1.369-0.57,1.76-1.69,1.76-3.08c0-1.16-0.71-2.2-1.78-2.63H69.061z M57.3,67.359c-0.42-0.01-0.85-0.049-1.29-0.1v7.28   c0,1.851-0.789,3.54-2.07,4.76c-0.219,0.21-0.449,0.4-0.689,0.57l5.721,4.39c0-4.439,0.039-8.88,0.039-13.33   c0-0.99-0.32-1.91-0.869-2.68c-0.24-0.34-0.521-0.641-0.841-0.9V67.359z M50.79,81.029c-1.09,0.281-2.25,0.301-3.36,0.051L48.49,93   h1.23l1.07-11.98V81.029z M44.7,79.82c-0.21-0.16-0.42-0.33-0.61-0.521c-1.29-1.229-2.08-2.93-2.08-4.76v-7.37   c-0.16,0.02-0.32,0.03-0.47,0.04c-0.28,0.021-0.55,0.03-0.79,0.04c-0.37,0.29-0.68,0.641-0.94,1.02c-0.5,0.75-0.79,1.66-0.79,2.65   c0,4.439,0.03,8.87,0.04,13.311l5.66-4.4L44.7,79.82z M69.51,90H65v3h5.2c-0.16-1.02-0.39-2.029-0.681-3H69.51z M63.01,93v-4v-1   h5.811c-1.6-4-4.301-7.529-7.811-10.04c0,3.45-0.05,6.89-0.05,10.34l-8.25-6.329L51.73,93H63.02H63.01z M45.49,81.74l-8.44,6.57   c0-3.391-0.01-6.781-0.03-10.17c-3.4,2.5-6.02,5.959-7.58,9.869H35l-0.01,5h11.5l-1-11.26V81.74z M28.75,90   c-0.29,0.971-0.52,1.98-0.68,3h4.94v-3H28.75z M52.37,49.49c-0.29,3.25-5.88,3.039-6.48,0l0.05-0.01L52.37,49.49z M50.609,54.66   c-1.169,0-1.959,1.109-1.839,2.22h1.53c-0.03,1.08,0.71,2.08,1.851,2.08c1.17,0,1.959-1.11,1.84-2.22h-1.53   C52.49,55.66,51.75,54.66,50.609,54.66z M54.92,44.65c0,0.77,0.689,1.39,1.54,1.39c0.83,0,1.511-0.6,1.54-1.35h3.18   c0.36,0,0.66-0.33,0.66-0.74c0-0.37-0.27-0.74-0.66-0.74h-4.709c-0.74,0-1.541,0.65-1.541,1.44H54.92z M43.33,44.61   c0,0.77-0.69,1.39-1.54,1.39s-1.54-0.62-1.54-1.39c0-0.17-2.36-0.09-2.67-0.09c-0.3,0-0.56-0.23-0.64-0.54   c-0.3,0.04-0.61,0.07-0.91,0.1c-0.01,3.12-0.07,6.28-0.03,9.391c0.05,3.68,1.47,6.989,3.76,9.389c2.31,2.431,5.52,3.931,9.07,3.931   c3.55,0,6.8-1.56,9.18-4.05c2.41-2.52,3.94-5.99,3.99-9.75v-18.7c0-0.64,0.18-3.34-0.221-3.64c-0.319-0.23-0.619-0.33-1.01-0.21   c-0.47,0.15-0.859,0.61-1.109,1.03c-1.67,3.82-4.801,6.62-8.7,8.62c-2.57,1.32-5.48,2.28-8.52,2.96c0.42,0.11,0.89,1.15,0.89,1.55   V44.61z M55.939,39.13l4.101,0.02c0.399,0,0.729,0.33,0.729,0.73s-0.33,0.73-0.729,0.73l-4.101-0.02   C54.971,40.59,54.971,39.12,55.939,39.13z"></path></g></svg>