<svg height='100px' width='100px'  fill="#000000" xmlns="http://www.w3.org/2000/svg" xmlns:xlink="http://www.w3.org/1999/xlink" version="1.1" x="0px" y="0px" viewBox="0 0 100 100" enable-background="new 0 0 100 100" xml:space="preserve"><g><path d="M57.99,84.62V93H74.02c-0.66-3.59-2.25-6.84-4.5-9.54c-2.26-2.71-5.189-4.86-8.529-6.229c0,0.979-0.01,1.959-0.02,2.93   c-0.011,1.439-0.021,2.88-0.021,4.311v1.59l-1.431-0.701l-1.529-0.75V84.62z M69.45,64.721c1.3,0.77,2.1,2.159,2.1,3.68   c0,2.359-1.909,4.27-4.271,4.27c-2.359,0-4.27-1.91-4.27-4.27c0-1.36,0.65-2.641,1.74-3.44c-0.391-0.42-0.63-0.97-0.63-1.64v-3.35   C63.23,61.6,62.1,63.061,60.77,64.3c-1.129,1.04-2.39,1.921-3.77,2.601v2.39c2.41,0.979,4,3.181,4,5.8   c3.95,1.471,7.42,3.939,10.061,7.1c2.719,3.261,4.549,7.271,5.119,11.69c-0.01,0.55-0.229,0.99-0.99,1.13   c-16.649,0-33.31,0-49.959,0c-0.93,0.11-1.1-0.39-0.99-1.119c0.53-4.451,2.32-8.57,5-11.931c2.56-3.2,5.92-5.72,9.78-7.181   c0.09-2.469,1.74-4.569,4-5.479v-2.59c-1.53-0.81-2.92-1.87-4.12-3.12c-1.15-1.199-2.12-2.58-2.88-4.09v0.27   c0,2.59,0.01,1.521,0.01,3.75c0,0.541-0.18,1.021-0.47,1.431c0.14,0.11,0.28,0.229,0.41,0.36c0.77,0.77,1.25,1.84,1.25,3.02   c0,2.359-1.91,4.27-4.27,4.27c-2.36,0-4.27-1.91-4.27-4.27c0-1.391,0.67-2.68,1.8-3.48c-0.25-0.42-0.4-0.92-0.4-1.439V52.96   c-2.89-0.181-4.55-2.54-4.55-5.3c0-1.34,0.55-2.55,1.45-3.44l0,0c0.81-0.8,1.9-1.32,3.1-1.41c-0.01-11.7-0.02-23.2-0.07-34.11   c-0.15-1.75,1.21-3.29,2.93-3.45c1.12-0.1,2.16,0.38,2.81,1.27l5.42,6.71c1.19-0.55,2.54-0.99,3.93-1.32   c1.78-0.41,3.63-0.63,5.32-0.63c1.62,0,3.2,0.2,4.71,0.58c1.28,0.32,2.511,0.77,3.681,1.33l5.359-6.64   c0.34-0.42,0.53-0.65,1.08-0.94c0.439-0.23,0.93-0.37,1.45-0.37c0.771,0,1.87,0.39,2.399,0.88c0.65,0.6,0.98,1.45,0.9,2.33   c0,10.19,0,20.37,0.01,30.56v3.8c2.49,0.22,4.43,2.33,4.43,4.84c0,2.71-1.59,5.071-4.43,5.29l0.01,10.08   c0,0.641-0.209,1.23-0.549,1.721L69.45,64.721z M68.891,66.8c-0.41-0.409-0.98-0.659-1.601-0.659c-1.25,0-2.271,1.02-2.271,2.27   s1.021,2.27,2.271,2.27s2.271-1.02,2.271-2.27c0-0.631-0.25-1.189-0.66-1.6L68.891,66.8z M32.92,64.04c0.2,0,0.4,0.01,0.59,0.04   C33.73,63.971,34,63.77,34,63.5v-3.75c-0.01-4.9-0.02-9.76,0.09-14.67c0.1-4.56,2.14-8.85,5.5-11.88   c2.97-2.67,6.66-4.14,10.62-4.21c5.58-0.13,10.819,2.89,13.67,7.66c1.521,2.5,2.229,5.42,2.21,8.32c0,3.42,0,6.809,0.01,10.2   c0.01,3.49,0.021,6.99,0.021,8.141c0,0.479,0.649,0.6,1.021,0.6c0.5,0,0.859-0.439,0.859-0.92c0-13.6,0-18.6-0.01-24   c-0.01-10.21-0.02-20.43-0.01-30.64c0-1.01-1.09-1.39-1.82-1c-0.32,0.17-0.65,0.76-0.74,0.77l-5.59,6.93l-0.52,0.65l-0.73-0.39   c-1.24-0.66-2.561-1.18-3.96-1.53c-1.351-0.34-2.761-0.52-4.22-0.52c-1.55,0-3.26,0.2-4.88,0.57c-1.53,0.35-2.99,0.86-4.18,1.5   l-0.73,0.39l-0.52-0.65l-5.64-6.99c-0.94-1.17-2.55-1.12-2.48,0.52c0.08,19,0.08,36.59,0.08,54.169c0,0.471-0.08,0.971,0.35,1.28   c0.17-0.021,0.34-0.03,0.51-0.03L32.92,64.04z M33.61,66.15c-0.24,0.05-0.48,0.08-0.71,0.08s-0.45-0.03-0.67-0.08   c-0.94,0.3-1.58,1.17-1.58,2.16c0,1.25,1.02,2.27,2.27,2.27s2.27-1.02,2.27-2.27C35.19,67.32,34.55,66.45,33.61,66.15z    M64.99,12.01c-0.311,0-0.58,0.16-0.75,0.4l-3.82,4.72l5.43,4.21l0.051-8c0-0.62-0.09-1.32-0.91-1.32V12.01z M34.92,12.01   c0.31,0,0.58,0.16,0.75,0.4l0,0l3.81,4.72l-5.43,4.21L34,13.06c-0.05-0.54,0.34-1.04,0.91-1.04L34.92,12.01z M52.98,17.43   c0.319,0.27,0.52,0.67,0.52,1.12c0,0.81-0.66,1.47-1.471,1.47H48.67c-0.81,0-1.47-0.66-1.47-1.47c0-0.45,0.2-0.87,0.55-1.15h-0.27   c-0.94,0-1.79,0.33-2.4,0.87c-0.57,0.51-0.93,1.19-0.93,1.94s0.36,1.43,0.93,1.94c0.61,0.54,1.46,0.87,2.4,0.87h4.991   c0.939,0,1.789-0.33,2.389-0.87c0.57-0.51,0.931-1.19,0.931-1.94s-0.36-1.43-0.931-1.94c-0.5-0.44-1.159-0.74-1.899-0.84H52.98z    M48.67,15.4h3.4c-0.26-0.65,0.27-1.3,0.949-1.3c0.771,0,1.301,0.81,0.86,1.47c0.88,0.22,1.681,0.64,2.31,1.2   c0.99,0.87,1.61,2.09,1.61,3.44s-0.62,2.57-1.61,3.44c-0.959,0.84-2.279,1.37-3.719,1.37H47.48c-1.44,0-2.76-0.52-3.72-1.37   c-0.99-0.87-1.61-2.09-1.61-3.44s0.62-2.57,1.61-3.44c0.8-0.7,1.85-1.19,3.01-1.33c-0.3-0.65,0.23-1.34,0.93-1.34   c0.68,0,1.21,0.65,0.95,1.3H48.67z M56.21,39.32l4.64,0.07c1.65,0.03,1.65,2.22-0.06,2.19l-4.64-0.07   C54.5,41.48,54.5,39.29,56.21,39.32z M40.81,37.64l4,2.23c1.01,0.56,0.78,2.08-0.34,2.31c-0.03,0.91-0.91,1.63-2.02,1.63   c-1.04,0-2.09-1.25-2-1.87h2.98l-3.81-2.12C38.17,39.01,39.39,36.85,40.81,37.64z M58,41.94c-1.029,0-2.17,0.74-2,1.87h4.01   c0.16-1.14-0.98-1.87-2-1.87H58z M49.99,56.71h2.39c0.72,0,0.72,1.08,0,1.08h-2.39C49.27,57.79,49.27,56.71,49.99,56.71z    M47.63,54.88h5.86c0.72,0,0.72,1.08,0,1.08h-5.86C46.91,55.96,46.91,54.88,47.63,54.88z M52.8,48.23c-0.659,2.831-4.87,3.1-5.18,0   l0.04-0.01L52.8,48.23z M30.05,44.8c-0.66,0.08-1.25,0.38-1.7,0.82l0,0c-0.52,0.52-0.85,1.23-0.85,2.02   c0,1.65,0.78,3.12,2.55,3.299V44.8z M70,50.93c1.7-0.209,2.43-1.689,2.43-3.28c0-1.41-1.039-2.61-2.43-2.82V50.93z M64.12,53.71   c-0.011-2.79-0.011-5.58-0.011-8.39c0-4.33-1.569-8.61-5.119-11.31c-1.2,1.04-2.84,1.68-4.66,1.68c-3.12,0-5.74-1.9-6.44-4.45   l-0.05,4.51c-1.85,0.03-3.45-1.41-4.41-2.86c-0.9,0.52-1.73,1.13-2.5,1.82c-2.87,2.59-4.75,6.56-4.84,10.43   c-0.07,3.08-0.09,4.88-0.1,7.93c0.47,3.85,1.3,5.979,4.32,9.14c2.19,2.28,5.83,4.34,9.51,4.42c3.73,0.08,7.51-1.851,9.59-3.78   c1.73-1.6,3.08-3.64,3.91-5.939c0.31-0.881,0.789-2.29,0.789-3.189L64.12,53.71z M51.8,84.55l1.63,8.47H56V83.66l-2.99-1.46   l-1.21,2.36V84.55z M46.57,93.02l1.63-8.47l-1.23-2.38l-3.06,1.5v9.35h2.65H46.57z M46.48,79.24c0.78,0,6.879,0.119,7.07-0.051   c0.9-0.859,1.46-2.039,1.46-3.34V67.74c-3.25,1.08-6.78,1.02-10-0.141v8.291C45.01,77.18,45.55,78.359,46.48,79.24z M54.73,80.82   l4.25,2.08c0-0.91,0.01-1.82,0.02-2.721c0.01-1.27,0.029-5.17,0.02-5.17c0-1.439-0.799-2.699-2-3.46v4.31   c0,1.931-0.85,3.69-2.279,4.971L54.73,80.82z M41.02,79.63l0.01,3.25c1.37-0.67,2.75-1.351,4.21-2.06   c-1.41-1.26-2.23-3.021-2.23-4.92v-4.34c-1.2,0.76-2,2.02-2,3.459c-0.01,0,0,4.23,0,4.621L41.02,79.63z M41.92,84.66l-2.89,1.41   c0-3.041-0.01-6.08-0.02-9.12c-3.22,1.36-6.04,3.54-8.22,6.271c-2.23,2.789-3.79,6.159-4.41,9.809h15.53V84.66H41.92z"></path></g></svg>