<svg height='100px' width='100px'  fill="#000000" xmlns="http://www.w3.org/2000/svg" xmlns:xlink="http://www.w3.org/1999/xlink" version="1.1" x="0px" y="0px" viewBox="0 0 100 100" enable-background="new 0 0 100 100" xml:space="preserve"><path d="M82.461,38.249c-1.93-4.535-6.43-7.724-11.66-7.724H29.423c-5.232,0-9.732,3.188-11.662,7.724  c-4.481,0.335-7.988,3.326-7.988,6.968v8.095c0,3.516,3.273,6.419,7.533,6.918c1.582,5.191,6.414,8.983,12.117,8.983h6.404  c4.351,0,6.367-3.2,8.146-6.023c1.899-3.017,3.212-4.865,6.139-4.865c2.926,0,4.24,1.849,6.139,4.865  c1.779,2.823,3.795,6.023,8.144,6.023h6.406c5.702,0,10.534-3.792,12.115-8.983c4.261-0.499,7.534-3.402,7.534-6.918v-8.095  C90.45,41.575,86.942,38.585,82.461,38.249z M79.848,56.547c0,4.988-4.059,9.047-9.047,9.047h-6.402l-0.004,1.81v-1.81  c-2.238,0-3.389-1.646-5.082-4.334c-1.839-2.92-4.129-6.555-9.201-6.555c-5.073,0-7.362,3.633-9.202,6.555  c-1.693,2.688-2.843,4.334-5.088,4.334h-6.399c-4.989,0-9.047-4.059-9.047-9.047V43.191c0-4.989,4.059-9.047,9.047-9.047h41.378  c4.988,0,9.047,4.059,9.047,9.047V56.547z"></path><g><path d="M25.778,61.718l16.01-24.859H29.423c-3.492,0-6.333,2.841-6.333,6.333v13.355C23.089,58.682,24.155,60.569,25.778,61.718z"></path><path d="M55.703,53.41l10.659-16.552H50.841L34.083,62.88h1.739c0.645,0,1.139-0.443,2.792-3.067   c1.961-3.114,4.926-7.821,11.498-7.821C52.368,51.991,54.191,52.554,55.703,53.41z"></path><path d="M74.594,38.132l-13.47,20.917c0.169,0.262,0.332,0.519,0.486,0.764c1.652,2.624,2.144,3.067,2.784,3.067h2.715h3.691   c3.491,0,6.333-2.842,6.333-6.333V43.191C77.134,41.123,76.133,39.288,74.594,38.132z"></path></g></svg>