<svg height='100px' width='100px'  fill="#000000" xmlns="http://www.w3.org/2000/svg" xmlns:xlink="http://www.w3.org/1999/xlink" version="1.1" x="0px" y="0px" viewBox="0 0 26 26" enable-background="new 0 0 26 26" xml:space="preserve"><g><g><path fill="none" d="M8.802,17.459"></path><path fill="none" d="M12.751,18.88c0.263,0.325,0.551,0.665,0.778,0.665c0.243,0,0.556-0.389,0.831-0.731    c0.322-0.399,0.654-0.812,1.085-0.927c0.413-0.111,0.95,0.075,1.442,0.263c0.416,0.16,0.873,0.317,1.046,0.216    c0.2-0.116,0.276-0.602,0.342-1.031c0.081-0.513,0.163-1.044,0.484-1.366c0.322-0.322,0.853-0.405,1.367-0.485    c0.428-0.067,0.913-0.143,1.029-0.342c0.112-0.193-0.07-0.666-0.216-1.046c-0.188-0.489-0.383-0.995-0.264-1.442    c0.116-0.431,0.529-0.763,0.928-1.084c0.343-0.276,0.732-0.589,0.732-0.832c0-0.243-0.388-0.556-0.731-0.832    c-0.399-0.322-0.812-0.654-0.928-1.084c-0.119-0.447,0.075-0.953,0.264-1.442c0.146-0.38,0.328-0.853,0.216-1.045    c-0.116-0.2-0.601-0.276-1.029-0.343c-0.514-0.08-1.045-0.163-1.367-0.485c-0.322-0.321-0.404-0.852-0.485-1.366    c-0.066-0.429-0.142-0.914-0.342-1.03c-0.171-0.1-0.629,0.057-1.045,0.216c-0.493,0.189-1.031,0.373-1.443,0.263    c-0.43-0.115-0.763-0.528-1.085-0.927c-0.276-0.343-0.589-0.731-0.831-0.731c-0.243,0-0.556,0.389-0.832,0.732    c-0.322,0.399-0.654,0.812-1.085,0.927c-0.411,0.11-0.95-0.074-1.443-0.263C9.754,3.167,9.297,3.01,9.126,3.111    c-0.2,0.116-0.276,0.601-0.343,1.03C8.702,4.654,8.62,5.186,8.298,5.507C7.976,5.83,7.445,5.912,6.93,5.993    C6.502,6.059,6.017,6.135,5.901,6.335C5.789,6.527,5.972,7,6.118,7.38c0.188,0.49,0.383,0.996,0.264,1.443    c-0.115,0.43-0.528,0.763-0.927,1.084c-0.343,0.276-0.731,0.589-0.731,0.832s0.389,0.556,0.732,0.832    c0.399,0.322,0.812,0.654,0.927,1.084c0.119,0.446-0.075,0.953-0.264,1.442c-0.146,0.38-0.329,0.853-0.217,1.045    c0.116,0.2,0.601,0.275,1.029,0.342c0.514,0.08,1.045,0.163,1.367,0.485"></path><path d="M11.434,18.557c-0.213-0.058-0.631,0.093-1.014,0.241c-0.581,0.224-1.22,0.414-1.642,0.169    c-0.19-0.11-0.31-0.283-0.404-0.478l-1.959,4.699l2.819-1.315l1.067,2.888l2.151-5.159c-0.1-0.114-0.198-0.234-0.294-0.354    C11.916,18.951,11.645,18.614,11.434,18.557z"></path><path d="M18.28,18.967c-0.421,0.244-1.06,0.055-1.642-0.169c-0.383-0.148-0.802-0.298-1.014-0.241    c-0.211,0.057-0.483,0.394-0.723,0.692c-0.079,0.098-0.16,0.195-0.241,0.29l2.177,5.222l1.067-2.888l2.819,1.315l-1.994-4.783    C18.632,18.638,18.499,18.841,18.28,18.967z"></path></g><path d="M21.604,9.907c-0.399-0.322-0.812-0.654-0.928-1.084c-0.119-0.447,0.075-0.953,0.264-1.442   c0.146-0.38,0.328-0.853,0.216-1.045c-0.116-0.2-0.601-0.276-1.029-0.343c-0.514-0.08-1.045-0.163-1.367-0.485   c-0.322-0.321-0.404-0.852-0.485-1.366c-0.066-0.429-0.142-0.914-0.342-1.03c-0.171-0.1-0.629,0.057-1.045,0.216   c-0.493,0.189-1.031,0.373-1.443,0.263c-0.43-0.115-0.763-0.528-1.085-0.927c-0.276-0.343-0.589-0.731-0.831-0.731   c-0.243,0-0.556,0.389-0.832,0.732c-0.322,0.399-0.654,0.812-1.085,0.927c-0.411,0.11-0.95-0.074-1.443-0.263   C9.754,3.167,9.297,3.01,9.126,3.111c-0.2,0.116-0.276,0.601-0.343,1.03C8.702,4.654,8.62,5.186,8.298,5.507   C7.976,5.83,7.445,5.912,6.93,5.993C6.502,6.059,6.017,6.135,5.901,6.335C5.789,6.527,5.972,7,6.118,7.38   c0.188,0.49,0.383,0.996,0.264,1.443c-0.115,0.43-0.528,0.763-0.927,1.084c-0.343,0.276-0.731,0.589-0.731,0.832   s0.389,0.556,0.732,0.832c0.399,0.322,0.812,0.654,0.927,1.084c0.119,0.446-0.075,0.953-0.264,1.442   c-0.146,0.38-0.329,0.853-0.217,1.045c0.116,0.2,0.601,0.275,1.029,0.342c0.514,0.08,1.045,0.163,1.367,0.485   c0.321,0.322,0.404,0.853,0.484,1.366c0.006,0.04,0.014,0.082,0.02,0.123c0.063,0.395,0.142,0.803,0.323,0.908   c0.173,0.1,0.629-0.056,1.045-0.216c0.384-0.147,0.781-0.3,1.149-0.3c0.104,0,0.203,0.013,0.293,0.037   c0.43,0.115,0.762,0.527,1.083,0.926c0.018,0.022,0.037,0.044,0.055,0.067c0.263,0.325,0.551,0.665,0.778,0.665   c0.242,0,0.554-0.387,0.83-0.729c0.001-0.001,0.001-0.002,0.002-0.002c0.322-0.399,0.654-0.812,1.085-0.927   c0.413-0.111,0.95,0.075,1.442,0.263c0.416,0.16,0.873,0.317,1.046,0.216c0.2-0.116,0.276-0.602,0.342-1.031   c0.001-0.004,0.002-0.009,0.002-0.013c0.08-0.509,0.164-1.034,0.482-1.352c0.322-0.322,0.853-0.405,1.367-0.485   c0.428-0.067,0.913-0.143,1.029-0.342c0.112-0.193-0.07-0.666-0.216-1.046c-0.188-0.489-0.383-0.995-0.264-1.442   c0.116-0.431,0.529-0.763,0.928-1.084c0.343-0.276,0.732-0.589,0.732-0.832C22.336,10.496,21.947,10.183,21.604,9.907z    M13.529,17.07c-3.491,0-6.331-2.84-6.331-6.331c0-3.491,2.84-6.331,6.331-6.331s6.331,2.84,6.331,6.331   C19.86,14.23,17.02,17.07,13.529,17.07z"></path><g><path d="M13.529,5.796c-2.726,0-4.943,2.218-4.943,4.943s2.218,4.943,4.943,4.943s4.943-2.218,4.943-4.943    S16.255,5.796,13.529,5.796z M15.318,13.336l-1.78-0.929l-1.774,0.94l0.333-1.98L10.653,9.97l1.986-0.295l0.883-1.804l0.894,1.798    l1.988,0.282l-1.433,1.406L15.318,13.336z"></path></g></g></svg>