<svg height='100px' width='100px'  fill="#000000" xmlns="http://www.w3.org/2000/svg" xmlns:xlink="http://www.w3.org/1999/xlink" version="1.1" x="0px" y="0px" viewBox="0 0 90 90" enable-background="new 0 0 90 90" xml:space="preserve"><path fill="#000000" d="M32.96094,28.56445l3.97656-10.87207h6.13672l2.61133,6.33691l3.625,13.17236l-2.13867,0.77539  l-7.11719,20.44873l-6.98633-7.50342l0.83008-7.09473l-5.8125-3.6709L32.96094,28.56445z M5.57031,72.30762l8.19922-21.42529  l6.51367-1.55859l3.2168-20.271l7.76953-1.68604l-0.16992,0.46631l-5.18555,12.3291l-4.20508,17.4458l-7.28711,7.60449  l9.10547-6.61133l3.95508-16.45996l4.2832,2.70508l-0.79102,6.7627l8.17578,8.78027l-2.11523,6.11768l4.3125-5.7085  l7.40039-21.26563l4.57227-1.65723l7.3418,15.27051l5.5,5.52686l-4.30664,6.23193h-6.82031l7.86914,2l4.69141-6.79004  l6.94531,4.1416l-9.92969-9.97754l8.40039-4.41553l11.41797,22.44434H5.57031z"></path></svg>