<svg height='100px' width='100px'  fill="#000000" xmlns="http://www.w3.org/2000/svg" viewBox="0 0 64 64" x="0px" y="0px"><title>moba-team-dota-esport-beast</title><g data-name="solid bk copy"><path d="M8,62a6.006,6.006,0,0,0,5.91-5H16V55H13.91a5.964,5.964,0,0,0-1.025-2.471l1.943-1.943-1.414-1.414-1.943,1.943A5.964,5.964,0,0,0,9,50.09V48H7v2.09A6,6,0,0,0,8,62Z"></path><path d="M7,13.91V16H9V13.91a5.964,5.964,0,0,0,2.471-1.025l1.943,1.943,1.414-1.414-1.943-1.943A5.964,5.964,0,0,0,13.91,9H16V7H13.91A6,6,0,1,0,7,13.91Z"></path><path d="M55,13.91V16h2V13.91A6,6,0,1,0,50.09,7H48V9h2.09A6.008,6.008,0,0,0,55,13.91Z"></path><path d="M57,50.09V48H55v2.09a5.964,5.964,0,0,0-2.471,1.025l-1.679-1.68-1.414,1.414,1.679,1.68A5.964,5.964,0,0,0,50.09,55H48v2h2.09A6,6,0,1,0,57,50.09Z"></path><rect x="7" y="18" width="2" height="3"></rect><rect x="33" y="55" width="3" height="2"></rect><rect x="38" y="55" width="3" height="2"></rect><rect x="23" y="55" width="3" height="2"></rect><rect x="43" y="55" width="3" height="2"></rect><rect x="18" y="55" width="3" height="2"></rect><rect x="28" y="55" width="3" height="2"></rect><rect x="18" y="7" width="3" height="2"></rect><rect x="23" y="7" width="3" height="2"></rect><rect x="38" y="7" width="3" height="2"></rect><rect x="28" y="7" width="3" height="2"></rect><rect x="43" y="7" width="3" height="2"></rect><rect x="33" y="7" width="3" height="2"></rect><rect x="19.132" y="18.632" width="2" height="3" transform="translate(-8.339 20.132) rotate(-45)"></rect><rect x="15.596" y="15.096" width="2" height="3" transform="translate(-6.874 16.596) rotate(-45)"></rect><rect x="46.667" y="46.167" width="2" height="3" transform="translate(-19.744 47.659) rotate(-44.993)"></rect><rect x="55" y="18" width="2" height="3"></rect><rect x="15.439" y="47.232" width="0.657" height="2" transform="translate(-29.475 25.252) rotate(-44.97)"></rect><rect x="39.128" y="22.482" width="2.778" height="2" transform="translate(-4.737 35.528) rotate(-45)"></rect><rect x="7" y="28" width="2" height="3"></rect><rect x="7" y="38" width="2" height="3"></rect><rect x="7" y="23" width="2" height="3"></rect><rect x="7" y="43" width="2" height="3"></rect><rect x="7" y="33" width="2" height="3"></rect><path d="M24.279,43H23V31a1,1,0,0,0-.2-.6l-3-4a1.036,1.036,0,0,0-1.6,0l-3,4a1,1,0,0,0-.2.6V43H13.721l-.773-2.316-1.9.632,1,3A1,1,0,0,0,13,45h2.586L18,47.414V50H17v2h4V50H20V47.414L22.414,45H25a1,1,0,0,0,.948-.684l1-3-1.9-.632ZM20,43H18V31h2Z"></path><path d="M52.279,31H50.946L50,13.944a1,1,0,0,0-.291-.651l-2-2a1,1,0,0,0-1.414,0l-2,2a1,1,0,0,0-.291.651L43.054,31H41.721l-.773-2.316-1.9.632,1,3A1,1,0,0,0,41,33h2.586L46,35.414V38H45v2h4V38H48V35.414L50.414,33H53a1,1,0,0,0,.948-.684l1-3-1.9-.632ZM48,31H46V19h2Z"></path><rect x="22.667" y="22.167" width="2" height="3" transform="translate(-9.803 23.663) rotate(-44.993)"></rect><path d="M36.885,35.471a5.96,5.96,0,0,0,0-6.942l1.943-1.943-1.414-1.414-1.943,1.943a5.96,5.96,0,0,0-6.942,0l-1.679-1.68-1.414,1.414,1.679,1.68a5.99,5.99,0,0,0,8.356,8.356l1.943,1.943,1.414-1.414Z"></path><rect x="39.596" y="39.096" width="2" height="3" transform="translate(-16.815 40.596) rotate(-45)"></rect><rect x="43.132" y="42.632" width="2" height="3" transform="translate(-18.28 44.132) rotate(-45)"></rect><rect x="55" y="38" width="2" height="3"></rect><rect x="55" y="43" width="2" height="3"></rect><rect x="55" y="23" width="2" height="3"></rect><rect x="55" y="28" width="2" height="3"></rect><rect x="55" y="33" width="2" height="3"></rect><rect x="24.561" y="36.94" width="3" height="2" transform="translate(-19.194 29.54) rotate(-45)"></rect></g></svg>