<svg height='100px' width='100px'  fill="#000000" xmlns="http://www.w3.org/2000/svg" xmlns:xlink="http://www.w3.org/1999/xlink" version="1.1" x="0px" y="0px" viewBox="0 0 64 64" style="enable-background:new 0 0 64 64;" xml:space="preserve"><g><path d="M25,44c0,1.66,1.35,3,3,3h8c1.65,0,3-1.34,3-3v-4H25V44z"></path><path d="M37,33H27c-3.86,0-7,3.14-7,7v12.77C20,52.9,20.1,53,20.23,53h23.54C43.9,53,44,52.9,44,52.77V40C44,36.14,40.86,33,37,33z    M41,44c0,2.76-2.24,5-5,5h-8c-2.76,0-5-2.24-5-5v-5c0-0.55,0.45-1,1-1h16c0.55,0,1,0.45,1,1V44z"></path><path d="M51.2,25.02c-0.19-0.71-0.43-1.41-0.71-2.09c-0.08-0.22-0.17-0.43-0.2599-0.65c-0.16-0.38-0.33-0.75-0.52-1.11   c-0.92-1.85-2.12-3.55-3.56-5.05c-1.13-1.18-2.34-2.18-3.59-2.96c-0.24-0.16-0.48-0.31-0.7-0.44c-0.1899-0.12-0.37-0.22-0.55-0.32   c-0.42-0.24-0.85-0.45-1.3-0.66c-0.32-0.14-0.66-0.28-1.01-0.42v-1.3c0-0.29-0.02-0.5699-0.07-0.85c-0.4-2.91-2.91-5.15-5.93-5.15   h-2c-3.02,0-5.53,2.2401-5.93,5.15C25.02,9.45,25,9.73,25,10.02v1.31c-0.35,0.13-0.68,0.27-1.01,0.42   c-0.44,0.2-0.87,0.41-1.28,0.64c-0.19,0.1-0.38,0.21-0.58,0.3199c-0.22,0.14-0.45,0.29-0.68,0.44c-3.04,1.94-5.51,4.72-7.16,8.01   c-0.19,0.37-0.36,0.74-0.53,1.12c-0.09,0.21-0.18,0.42-0.26,0.64c-0.28,0.69-0.51,1.39-0.7,2.1c-0.46,1.6201-0.72,3.29-0.78,4.9901   C12.01,30.28,12,30.56,12,30.83v5.34v16.57c0,4,3.14,7.26,7,7.26h26c3.86,0,7-3.26,7-7.26V36.17v-5.34   c0-0.27-0.01-0.55-0.02-0.8199C51.92,28.31,51.66,26.64,51.2,25.02z M27,10.02C27,9.5,27.1,9,27.29,8.54   c0.59-1.47,2.03-2.52,3.71-2.52h2c1.68,0,3.12,1.04,3.7,2.51c0.2,0.46,0.3,0.96,0.3,1.49v0.64c-0.06-0.01-0.13-0.03-0.19-0.05   c-0.3-0.07-0.6-0.14-0.9-0.2c-0.13-0.03-0.26-0.05-0.39-0.08c-0.05-0.0099-0.09-0.02-0.14-0.02   c-0.1133-0.0184-0.2285-0.0312-0.3431-0.049c-0.147-0.0222-0.2933-0.0482-0.441-0.0681c-0.0753-0.0099-0.1507-0.0184-0.2261-0.0273   c-0.0364-0.0043-0.0734-0.0118-0.1097-0.0157c-0.2389-0.0281-0.4778-0.045-0.7168-0.0632C32.4186,9.9948,31.2855,9.989,30.16,10.1   c-0.77,0.06-1.54,0.18-2.3,0.36c-0.0099,0-0.0099,0-0.02,0c-0.03,0.01-0.07,0.01-0.1,0.02c0,0-0.0099,0.01-0.02,0.01   c0,0,0,0-0.01,0c-0.02,0.01-0.04,0.01-0.06,0.01c-0.17,0.05-0.35,0.09-0.52,0.13c-0.01,0-0.02,0.01-0.03,0.01   c-0.03,0-0.07,0.0099-0.1,0.02V10.02z M46,52.77C46,54,45,55,43.77,55H20.23C19,55,18,54,18,52.77V40c0-4.96,4.04-9,9-9h10   c4.96,0,9,4.04,9,9V52.77z"></path><path d="M20.37,11.46c0.11-0.0699,0.22-0.14,0.32-0.19L14.3,4.88C13.73,4.31,12.97,4,12.17,4c0,0,0,0-0.01,0   c-0.8,0-1.55,0.32-2.11,0.88l-5.16,5.17C4.32,10.61,4,11.36,4,12.16c-0.01,0.41,0.07,0.8,0.23,1.16L4.24,13.35   c0.15,0.35,0.37,0.67,0.64,0.95l2.73,2.73l4.36,4.36c0.18-0.4,0.35-0.77,0.54-1.14C14.32,16.63,17.05,13.59,20.37,11.46z"></path><path d="M59.12,14.3c0.27-0.28,0.49-0.6,0.64-0.95l0.01-0.03c0.16-0.36,0.24-0.75,0.23-1.16c0-0.8-0.32-1.55-0.88-2.11l-5.17-5.16   C53.39,4.32,52.64,4,51.84,4h-0.01c-0.8,0-1.56,0.31-2.13,0.88l-6.39,6.39c0.11,0.07,0.24,0.15,0.36,0.23   c1.34,0.83,2.67,1.93,3.92,3.24c1.59,1.65,2.9,3.51,3.91,5.54c0.18,0.34,0.36,0.72,0.52,1.12l4.37-4.37L59.12,14.3z"></path><path d="M10.01,30.33c0.03-1.5699,0.21-3.12,0.55-4.6299c0.17-0.77,0.38-1.52,0.62-2.27l-7.1808-7.4434L10.01,30.33z"></path><path d="M52.81,23.43c0.25,0.75,0.46,1.5,0.63,2.28c0.34,1.5,0.52,3.05,0.55,4.62l6.0109-14.3032L52.81,23.43z"></path></g></svg>