<svg height='100px' width='100px'  fill="#000000" xmlns="http://www.w3.org/2000/svg" xmlns:xlink="http://www.w3.org/1999/xlink" version="1.1" x="0px" y="0px" viewBox="0 0 100 100" enable-background="new 0 0 100 100" xml:space="preserve"><g><path d="M74.712,54.806l-0.227,0.192c-4.384,3.733-9.172,7.309-14.23,10.629c-2.584,1.696-5.259,3.334-7.954,4.87   c2.454,1.199,4.879,2.259,7.208,3.15l0.122,0.044l0.129,0.047c1.071,0.406,2.117,0.766,3.151,1.106   c8.406-4.383,14.305-12.908,14.998-22.873c-0.967,0.888-1.935,1.752-2.884,2.569C74.923,54.629,74.817,54.717,74.712,54.806z"></path><path d="M25.515,54.998l-0.225-0.19c-0.106-0.089-0.212-0.179-0.316-0.268c-0.949-0.817-1.917-1.681-2.884-2.569   c0.693,9.965,6.592,18.489,14.998,22.872c1.034-0.34,2.081-0.7,3.151-1.106l0.129-0.047l0.122-0.044   c2.33-0.891,4.754-1.951,7.208-3.15c-2.695-1.536-5.37-3.174-7.954-4.87C34.687,62.307,29.9,58.731,25.515,54.998z"></path><path d="M56.894,75.291L56.8,75.248c-2.118-1.001-4.286-2.102-6.443-3.271l-0.311-0.172L50,71.78l-0.045,0.025l-0.311,0.172   c-2.158,1.169-4.326,2.27-6.443,3.271l-0.093,0.043l-0.077,0.036c-0.792,0.373-1.577,0.731-2.358,1.078   c2.918,1.032,6.056,1.599,9.327,1.599c3.271,0,6.409-0.567,9.327-1.599c-0.78-0.347-1.566-0.705-2.357-1.078L56.894,75.291z"></path><path d="M80.997,51.527c-0.509-0.509-1.034-1.019-1.566-1.53c12.152-11.658,18.264-22.941,14.431-28.782   c-1.653-2.519-5.01-3.797-9.755-3.797c-2.872,0-6.251,0.468-10.071,1.412c-4.427,1.094-9.21,2.785-14.161,4.964   c-0.182-0.069-0.369-0.127-0.552-0.192c0.003-0.002,0.007-0.003,0.01-0.005c-0.164-0.058-0.331-0.109-0.496-0.164   c-0.2-0.067-0.399-0.137-0.601-0.199c-0.409-0.126-0.822-0.241-1.239-0.349c-0.202-0.052-0.406-0.099-0.61-0.146   c-0.293-0.069-0.589-0.133-0.885-0.192c-0.186-0.037-0.371-0.076-0.558-0.109c-0.46-0.083-0.924-0.155-1.392-0.215   c-0.126-0.016-0.254-0.027-0.381-0.041c-0.391-0.044-0.785-0.081-1.181-0.109c-0.149-0.011-0.298-0.021-0.448-0.029   c-0.511-0.028-1.024-0.047-1.542-0.047h0l0,0c0,0,0,0,0,0c-0.518,0-1.031,0.019-1.542,0.047c-0.15,0.008-0.299,0.019-0.449,0.029   c-0.395,0.028-0.788,0.064-1.178,0.109c-0.128,0.014-0.257,0.026-0.385,0.042c-0.467,0.06-0.93,0.132-1.39,0.214   c-0.188,0.034-0.374,0.073-0.561,0.11c-0.296,0.059-0.59,0.123-0.882,0.192c-0.205,0.048-0.41,0.095-0.612,0.147   c-0.415,0.107-0.828,0.222-1.236,0.348c-0.204,0.063-0.405,0.133-0.607,0.201c-0.164,0.055-0.329,0.105-0.492,0.163   c0.003,0.002,0.007,0.003,0.01,0.005c-0.184,0.065-0.37,0.123-0.552,0.192c-4.951-2.178-9.734-3.869-14.16-4.964   c-3.819-0.944-7.2-1.412-10.071-1.412c-4.746,0-8.102,1.278-9.755,3.797c-3.833,5.841,2.278,17.124,14.431,28.782   c-0.533,0.511-1.058,1.021-1.566,1.53C7.895,62.635,2.473,73.199,6.139,78.784c1.653,2.519,5.01,3.797,9.756,3.797   c2.871,0,6.251-0.468,10.071-1.412c4.427-1.095,9.21-2.785,14.162-4.964c0.907-0.399,1.817-0.809,2.734-1.24   c0.057-0.027,0.113-0.051,0.169-0.078c2.122-1.003,4.267-2.092,6.424-3.261c0.182-0.099,0.364-0.202,0.547-0.302   c0.182,0.1,0.365,0.203,0.547,0.302c2.156,1.169,4.302,2.258,6.424,3.261c0.057,0.027,0.113,0.051,0.169,0.078   c0.917,0.432,1.827,0.841,2.734,1.24c4.952,2.179,9.735,3.869,14.162,4.964c3.819,0.944,7.2,1.412,10.071,1.412   c4.747,0,8.102-1.278,9.756-3.797C97.527,73.199,92.105,62.635,80.997,51.527z M47.975,70.805c-2.48,1.215-4.938,2.294-7.342,3.214   c-0.085,0.032-0.168,0.06-0.253,0.092c-0.94,0.356-1.869,0.681-2.79,0.99c-2.218,0.743-4.382,1.353-6.455,1.795   c-2.768,0.59-5.284,0.882-7.509,0.882c-4.796,0-8.243-1.355-9.979-4.001c-2.542-3.874-1.087-10.012,4.098-17.285   c1.228-1.723,2.638-3.462,4.197-5.198c0.035,0.033,0.072,0.065,0.107,0.098c1.026,0.949,2.084,1.899,3.186,2.848   c0.177,0.152,0.36,0.304,0.539,0.456c4.242,3.612,9.004,7.195,14.19,10.599c2.667,1.75,5.351,3.388,8.028,4.911   c0.184,0.104,0.367,0.212,0.551,0.316C48.353,70.614,48.164,70.712,47.975,70.805z M50,69.787   c-0.189-0.098-0.378-0.202-0.567-0.302c-3.031-1.596-6.079-3.386-9.092-5.363c-5.522-3.624-10.529-7.602-14.78-11.679   c-0.164-0.157-0.335-0.314-0.497-0.471c-0.259-0.252-0.778-0.756-0.778-0.756l-1.171-1.199l-1.072-1.147l-0.126-0.135   c0,0-3.299-3.81-4.645-5.698c-5.184-7.273-6.64-13.412-4.098-17.285c1.76-2.682,5.294-3.959,9.982-3.959   c4.161,0,9.235,1.015,14.782,2.934c0.006,0.002,0.011,0.004,0.017,0.006c-0.173,0.083-0.347,0.166-0.519,0.253   c-0.002-0.001-0.004-0.002-0.006-0.002c-0.032,0.016-0.062,0.035-0.093,0.051c-0.448,0.228-0.888,0.47-1.322,0.721   c-0.073,0.042-0.148,0.081-0.22,0.124c-1.021,0.604-2.001,1.268-2.934,1.993c-0.045,0.035-0.086,0.072-0.131,0.107   c-0.403,0.317-0.798,0.644-1.183,0.982c-0.144,0.127-0.281,0.26-0.423,0.389c-0.278,0.255-0.555,0.511-0.822,0.776   c-0.168,0.166-0.329,0.338-0.492,0.509c-0.23,0.24-0.458,0.482-0.68,0.73c-0.171,0.192-0.337,0.388-0.504,0.585   c-0.202,0.239-0.401,0.481-0.595,0.727c-0.166,0.21-0.328,0.422-0.488,0.637c-0.083,0.112-0.173,0.219-0.254,0.332h0.016   c-3.009,4.172-4.909,9.199-5.235,14.656c0.084,0.098,0.135,0.157,0.138,0.16l1.192,1.275l1.164,1.191l0.779,0.757   c0.091,0.088,0.184,0.176,0.278,0.264l0.217,0.205c4.322,4.145,9.276,8.059,14.723,11.633c2.94,1.929,5.988,3.727,9.059,5.344   l0.247,0.132c0.045,0.024,0.09,0.048,0.135,0.072c0.044-0.024,0.089-0.048,0.133-0.071l0.248-0.132   c3.071-1.617,6.119-3.415,9.059-5.344c5.447-3.575,10.4-7.489,14.723-11.633l0.217-0.205c0.094-0.088,0.187-0.176,0.278-0.264   l0.286-0.276c0.165-0.159,0.33-0.317,0.489-0.476c0.396-0.396,1.162-1.189,1.162-1.189l1.188-1.27   c0.004-0.005,0.057-0.067,0.148-0.172c-0.327-5.458-2.226-10.484-5.235-14.656h0.016c-0.081-0.113-0.17-0.219-0.253-0.331   c-0.16-0.216-0.323-0.429-0.49-0.64c-0.193-0.245-0.391-0.485-0.592-0.724c-0.167-0.198-0.334-0.395-0.506-0.587   c-0.22-0.247-0.448-0.487-0.677-0.727c-0.164-0.172-0.327-0.345-0.495-0.512c-0.266-0.264-0.54-0.518-0.816-0.771   c-0.143-0.131-0.282-0.266-0.428-0.395c-0.381-0.335-0.773-0.659-1.173-0.973c-0.048-0.038-0.093-0.078-0.141-0.116   c-0.931-0.724-1.911-1.388-2.931-1.991c-0.075-0.045-0.153-0.085-0.229-0.129c-0.431-0.25-0.868-0.49-1.313-0.716   c-0.032-0.016-0.063-0.035-0.095-0.052c-0.002,0.001-0.004,0.002-0.007,0.002c-0.171-0.087-0.345-0.17-0.518-0.253   c0.006-0.002,0.011-0.004,0.017-0.006c5.546-1.919,10.621-2.934,14.781-2.934c4.689,0,8.221,1.276,9.982,3.959   c2.543,3.874,1.087,10.012-4.098,17.285c-1.346,1.888-4.645,5.698-4.645,5.698l-0.126,0.135l-1.072,1.147   c0,0-0.772,0.8-1.171,1.199c-0.253,0.253-0.52,0.504-0.778,0.756c-0.162,0.158-0.333,0.314-0.497,0.471   c-4.251,4.077-9.258,8.055-14.78,11.679c-3.012,1.977-6.061,3.768-9.092,5.363C50.378,69.584,50.189,69.689,50,69.787z    M86.353,73.776c-1.736,2.646-5.184,4.001-9.979,4.001c-2.225,0-4.74-0.292-7.509-0.882c-2.073-0.442-4.237-1.052-6.455-1.795   c-0.922-0.309-1.85-0.634-2.79-0.99c-0.085-0.032-0.168-0.059-0.253-0.092c-2.404-0.92-4.862-1.998-7.342-3.214   c-0.189-0.093-0.379-0.191-0.568-0.286c0.184-0.103,0.367-0.211,0.551-0.316c2.676-1.523,5.361-3.161,8.028-4.911   c5.186-3.403,9.948-6.987,14.19-10.599c0.179-0.152,0.362-0.304,0.539-0.456c1.102-0.949,2.16-1.899,3.186-2.848   c0.035-0.033,0.072-0.065,0.107-0.098c1.559,1.736,2.969,3.475,4.197,5.198C87.44,63.763,88.896,69.902,86.353,73.776z"></path></g></svg>