<svg height='100px' width='100px'  fill="#000000" xmlns="http://www.w3.org/2000/svg" xmlns:xlink="http://www.w3.org/1999/xlink" xml:space="preserve" version="1.1" style="shape-rendering:geometricPrecision;text-rendering:geometricPrecision;image-rendering:optimizeQuality;" viewBox="0 0 846.66 846.66" x="0px" y="0px" fill-rule="evenodd" clip-rule="evenodd"><defs><style type="text/css">
   
    .fil0 {fill:#000000}
   
  </style></defs><g><path class="fil0" d="M132.37 528.72l-94.42 -105.39 94.42 -105.38 407.67 0 0 -28.68c0,-10.7 8.76,-19.45 19.46,-19.45l29.99 0c10.7,0 19.46,8.75 19.46,19.45l0 87.96 199.76 0 0 92.21 -199.76 0 0 87.96c0,10.7 -8.76,19.45 -19.46,19.45l-29.99 0c-10.7,0 -19.46,-8.75 -19.46,-19.45l0 -28.68 -140.32 0 -22.02 -38.15 -22.02 38.15 -223.31 0z"></path></g></svg>