<?xml version="1.0" encoding="iso-8859-1"?>
<!-- Generator: Adobe Illustrator 22.1.0, SVG Export Plug-In . SVG Version: 6.00 Build 0)  -->
<svg version="1.1" id="Layer_1" xmlns="http://www.w3.org/2000/svg" xmlns:xlink="http://www.w3.org/1999/xlink" x="0px" y="0px"
	 viewBox="840 150 400 400"
	 xml:space="preserve"
	 fill="#808080">
<path d="M1159.819,267.3c-10.806-8.646-23.157-14.667-36.588-17.909c-7.719-1.852-15.438-2.624-23.312-2.933
	c-5.867-0.154-11.733-0.154-17.599-0.154c-27.634,0-55.423,0-83.057,0c-5.866,0-11.733,0-17.599,0.154
	c-7.873,0.309-15.592,1.081-23.312,2.933c-13.431,3.242-25.782,9.263-36.588,17.909c-21.768,17.445-34.427,43.844-34.427,71.632
	c0,27.943,12.659,54.188,34.427,71.633c10.806,8.645,23.157,14.666,36.588,17.908c7.719,1.853,15.439,2.624,23.312,2.933
	c5.867,0.154,11.734,0.154,17.599,0.154c27.635,0,55.423,0,83.057,0c5.867,0,11.733,0,17.599-0.154
	c7.874-0.309,15.593-1.081,23.312-2.933c13.431-3.242,25.782-9.263,36.588-17.908c21.768-17.445,34.427-43.844,34.427-71.633
	C1194.247,310.989,1181.587,284.745,1159.819,267.3z M1119.371,363.788c-4.168,2.779-8.645,4.477-13.585,5.249
	c-4.94,0.772-9.726,0.617-14.666,0.617c-33.501,0-67.156,0-100.657,0c-4.94,0-9.725,0.154-14.666-0.617
	c-4.94-0.772-9.417-2.47-13.585-5.249c-8.183-5.712-13.122-14.975-13.122-24.856c0-10.034,4.94-19.298,13.122-24.856
	c4.168-2.778,8.645-4.477,13.585-5.248c4.94-0.773,9.726-0.618,14.666-0.618c33.501,0,67.156,0,100.657,0
	c4.94,0,9.726-0.155,14.666,0.618c4.94,0.771,9.417,2.47,13.585,5.248c8.183,5.712,13.123,14.976,13.123,24.856
	C1132.494,348.967,1127.554,358.23,1119.371,363.788z"/>
</svg>
